<?xml version="1.0" encoding="UTF-8"?>
<svg xmlns="http://www.w3.org/2000/svg" version="1.1" width="1024" height="535" style="background: transparent;">

<path d="M0 0 C7.5184605 6.09359097 10.8793824 11.94263922 13.75 21.1875 C14.245 22.6725 14.245 22.6725 14.75 24.1875 C15.0356634 28.0366666 15.02777974 31.89142165 15.0625 35.75 C15.10600586 37.32104492 15.10600586 37.32104492 15.15039062 38.92382812 C15.20954858 46.24576287 13.83955959 51.59455271 10.75 58.1875 C10.0627513 60.18052124 9.38484067 62.17717123 8.75 64.1875 C8.09 64.1875 7.43 64.1875 6.75 64.1875 C6.523125 64.744375 6.29625 65.30125 6.0625 65.875 C2.51529608 72.12483548 -3.42496908 76.26210725 -10.15478516 78.66162109 C-14.50554757 79.75362089 -18.90971083 79.78367236 -23.375 79.8125 C-24.29273193 79.82321533 -25.21046387 79.83393066 -26.15600586 79.8449707 C-32.87135697 79.70728466 -38.19717098 78.04773595 -44.25 75.1875 C-44.25 74.5275 -44.25 73.8675 -44.25 73.1875 C-44.84296875 72.9296875 -45.4359375 72.671875 -46.046875 72.40625 C-48.42660965 71.08980105 -49.75978792 69.76169218 -51.5 67.6875 C-52.02078125 67.0790625 -52.5415625 66.470625 -53.078125 65.84375 C-54.25 64.1875 -54.25 64.1875 -54.25 62.1875 C-54.91 62.1875 -55.57 62.1875 -56.25 62.1875 C-59.7154579 53.44851921 -60.45393939 45.81083455 -60.5 36.4375 C-60.520625 35.40367187 -60.54125 34.36984375 -60.5625 33.3046875 C-60.61085716 23.70579079 -58.2021492 15.84458873 -54.25 7.1875 C-53.59 7.1875 -52.93 7.1875 -52.25 7.1875 C-52.04375 6.630625 -51.8375 6.07375 -51.625 5.5 C-48.31037463 -0.07459721 -42.21082022 -3.57719242 -36.25 -5.8125 C-23.27433028 -8.57990979 -10.99731229 -7.71052158 0 0 Z " fill="#89D462" transform="translate(636.25,247.8125)"/>
<path d="M0 0 C0.81831802 -0.00570007 1.63663605 -0.01140015 2.47975159 -0.01727295 C4.22078147 -0.02674502 5.96182946 -0.03326564 7.70288086 -0.03710938 C10.33675864 -0.04672119 12.96982439 -0.07768256 15.60351562 -0.109375 C25.93970868 -0.17542273 35.60604841 -0.11576214 44.56640625 5.765625 C45.54480469 6.38630859 45.54480469 6.38630859 46.54296875 7.01953125 C47.00445312 7.41011719 47.4659375 7.80070313 47.94140625 8.203125 C47.94140625 8.863125 47.94140625 9.523125 47.94140625 10.203125 C48.54855469 10.30753906 49.15570313 10.41195312 49.78125 10.51953125 C53.52109763 11.70302734 55.15015977 14.92212525 56.94140625 18.203125 C60.06718798 25.75731403 60.40118848 33.05334252 60.31640625 41.140625 C60.32800781 42.24341797 60.33960938 43.34621094 60.3515625 44.48242188 C60.29006855 61.8544627 60.29006855 61.8544627 54.94140625 67.203125 C54.67328125 67.986875 54.40515625 68.770625 54.12890625 69.578125 C52.65423816 72.83791761 50.87986444 74.21966572 47.94140625 76.203125 C47.28140625 76.203125 46.62140625 76.203125 45.94140625 76.203125 C45.44640625 77.688125 45.44640625 77.688125 44.94140625 79.203125 C43.05078125 80.3359375 43.05078125 80.3359375 40.69140625 81.328125 C39.53898437 81.82699219 39.53898437 81.82699219 38.36328125 82.3359375 C32.87204704 84.30215362 27.68454271 84.33673413 21.921875 84.30078125 C20.63401848 84.29865883 20.63401848 84.29865883 19.32014465 84.29649353 C16.58969576 84.29091557 13.85933018 84.27836714 11.12890625 84.265625 C9.27278765 84.26060715 7.41666775 84.25604474 5.56054688 84.25195312 C1.02080145 84.24095336 -3.51888205 84.22370393 -8.05859375 84.203125 C-9.57375596 81.17280058 -9.22887428 78.55197538 -9.05859375 75.203125 C-8.73006409 74.4178392 -8.40153442 73.63255341 -8.06304932 72.82347107 C-6.94050436 69.89506252 -6.80495868 67.71786031 -6.79980469 64.59008789 C-6.79350037 63.48866959 -6.78719604 62.38725128 -6.78070068 61.25245667 C-6.78474915 60.07215378 -6.78879761 58.89185089 -6.79296875 57.67578125 C-6.7910553 56.45410751 -6.78914185 55.23243378 -6.78717041 53.97373962 C-6.78581055 51.39240309 -6.78949308 48.81105968 -6.79785156 46.22973633 C-6.80854434 42.2838601 -6.79795391 38.33844011 -6.78515625 34.39257812 C-6.78647806 31.8828115 -6.7890409 29.37304515 -6.79296875 26.86328125 C-6.78892029 25.68500259 -6.78487183 24.50672394 -6.78070068 23.29273987 C-6.79015717 21.63588417 -6.79015717 21.63588417 -6.79980469 19.94555664 C-6.80139587 18.97912735 -6.80298706 18.01269806 -6.80462646 17.01698303 C-7.09117494 13.84213815 -8.01984478 11.20746328 -9.05859375 8.203125 C-9.24609375 4.390625 -9.24609375 4.390625 -9.05859375 1.203125 C-7.01956508 -0.83590367 -2.802262 0.0149864 0 0 Z " fill="#8AD563" transform="translate(226.05859375,241.796875)"/>
<path d="M0 0 C1.79609474 -0.02152077 3.59208628 -0.0555533 5.38769531 -0.10253906 C24.76923468 -0.60421671 24.76923468 -0.60421671 32.58496094 6.4050293 C35.22588764 9.17478169 36.38395323 10.80200616 37.58496094 14.4050293 C38.24496094 14.7350293 38.90496094 15.0650293 39.58496094 15.4050293 C40.71643595 36.62647178 40.71643595 36.62647178 34.58496094 44.4050293 C27.26790683 49.74475939 19.24413975 52.04116038 10.44824219 53.79174805 C6.82698922 54.56737795 3.86169584 55.6921906 0.58496094 57.4050293 C-1.32780517 61.23056152 -0.31222714 66.41898428 -0.11230469 70.66479492 C-0.0212349 74.78317288 -0.060759 76.8395015 -2.30175781 80.41674805 C-5.94574797 83.84519719 -8.48571 83.56727659 -13.41503906 83.5925293 C-15.30222656 83.61379883 -15.30222656 83.61379883 -17.22753906 83.63549805 C-20.41503906 83.4050293 -20.41503906 83.4050293 -22.41503906 81.4050293 C-22.71606608 77.64219161 -22.5108588 74.72060495 -21.41162109 71.1003418 C-19.75331237 64.65738946 -20.16934035 58.00901597 -20.21972656 51.4050293 C-20.22346287 49.95914914 -20.22630692 48.51326642 -20.228302 47.06738281 C-20.23588992 43.28624315 -20.25549599 39.50526037 -20.27770996 35.72418213 C-20.29827349 31.85610068 -20.30732605 27.98799356 -20.31738281 24.11987305 C-20.33874714 16.54818742 -20.37282358 8.97663045 -20.41503906 1.4050293 C-13.84257872 -0.41572217 -6.78024605 0.06095572 0 0 Z " fill="#89D461" transform="translate(688.4150390625,241.594970703125)"/>
<path d="M0 0 C1.94849465 -0.02642901 3.89685442 -0.06715384 5.84472656 -0.12304688 C27.365437 -0.73314643 27.365437 -0.73314643 36.6394043 7.45996094 C41.71892396 13.47731679 43.22647593 19.93309069 42.9909668 27.65136719 C42.07162095 34.99591897 38.97095229 41.37075604 33.6394043 46.45996094 C31.06371562 48.04097309 28.41890504 49.28181865 25.6394043 50.45996094 C24.8556543 50.83121094 24.0719043 51.20246094 23.2644043 51.58496094 C19.91884822 52.7001463 16.53659045 53.29973101 13.0769043 53.96386719 C8.48333976 54.89877535 4.62756748 55.68766215 1.6394043 59.45996094 C1.30788337 61.50455661 1.30788337 61.50455661 1.5222168 63.73339844 C1.55444336 64.55839844 1.58666992 65.38339844 1.61987305 66.23339844 C1.71581965 67.96043724 1.81991876 69.68704341 1.93237305 71.41308594 C2.08733269 75.73848106 2.05148944 77.83308238 -0.3840332 81.53808594 C-4.04907185 83.90448884 -6.8956445 84.07047844 -11.1105957 83.83496094 C-12.13733398 83.81369141 -12.13733398 83.81369141 -13.18481445 83.79199219 C-18.17684251 83.64371413 -18.17684251 83.64371413 -19.3605957 82.45996094 C-19.58879623 78.20021774 -19.48480995 74.60896903 -18.36328125 70.49755859 C-16.97602458 64.47167933 -17.09258752 58.51470838 -17.13012695 52.35839844 C-17.13058517 51.12256012 -17.1310434 49.8867218 -17.1315155 48.61343384 C-17.13452387 46.01311273 -17.14236748 43.4127932 -17.15478516 40.8125 C-17.17306903 36.84075513 -17.17529436 32.86924357 -17.17504883 28.89746094 C-17.17996386 26.36360476 -17.18579212 23.82975016 -17.19262695 21.29589844 C-17.19373978 20.11345551 -17.1948526 18.93101257 -17.19599915 17.71273804 C-17.2225872 10.94216352 -17.2225872 10.94216352 -17.93359375 4.22021484 C-18.07450439 3.30933105 -18.21541504 2.39844727 -18.3605957 1.45996094 C-15.35542565 -1.54520912 -4.25342093 0.04396301 0 0 Z " fill="#88D560" transform="translate(523.360595703125,241.5400390625)"/>
<path d="M0 0 C1.04929687 -0.02578125 2.09859375 -0.0515625 3.1796875 -0.078125 C6.47207716 0.28866642 7.82522016 0.8954635 10.125 3.25 C10.59642247 7.1785206 10.10633582 10.47598463 9.11816406 14.25097656 C7.84411079 19.87415708 7.83729862 25.36501333 7.859375 31.109375 C7.85746155 32.2167804 7.8555481 33.32418579 7.85357666 34.46514893 C7.85222274 36.79138417 7.8558634 39.11762717 7.86425781 41.44384766 C7.87500937 45.0031014 7.86431435 48.56185512 7.8515625 52.12109375 C7.85288344 54.38802194 7.85544447 56.65494983 7.859375 58.921875 C7.85532654 59.98339783 7.85127808 61.04492065 7.84710693 62.13861084 C7.85341125 63.13024231 7.85971558 64.12187378 7.86621094 65.14355469 C7.86780212 66.01131531 7.86939331 66.87907593 7.87103271 67.77313232 C8.15673448 70.55949695 9.02773369 72.68561807 10.125 75.25 C10.45297595 78.00499795 10.59362068 79.52529293 9.07421875 81.875 C6.11677528 83.96121263 3.10827277 83.68471325 -0.375 83.625 C-1.05175781 83.63660156 -1.72851562 83.64820313 -2.42578125 83.66015625 C-5.22639689 83.64358456 -7.38182818 83.53801234 -9.828125 82.109375 C-11.36411775 79.38126848 -11.1973582 77.24363844 -11.125 74.125 C-11.08632813 72.27648437 -11.08632813 72.27648437 -11.046875 70.390625 C-10.7795274 63.33676127 -10.35244891 56.29237139 -9.875 49.25 C-12.67782145 48.31572618 -14.39806918 48.12139215 -17.296875 48.1171875 C-18.15796875 48.11589844 -19.0190625 48.11460937 -19.90625 48.11328125 C-20.8034375 48.11714844 -21.700625 48.12101562 -22.625 48.125 C-23.94757813 48.11919922 -23.94757813 48.11919922 -25.296875 48.11328125 C-26.163125 48.11457031 -27.029375 48.11585938 -27.921875 48.1171875 C-29.09508301 48.11887939 -29.09508301 48.11887939 -30.29199219 48.12060547 C-33.524648 48.2825438 -36.67783584 48.75726289 -39.875 49.25 C-39.84881592 50.17337158 -39.82263184 51.09674316 -39.7956543 52.0480957 C-39.71041695 55.47550017 -39.64774825 58.90177855 -39.6003418 62.32983398 C-39.5752019 63.81308768 -39.54108408 65.29621753 -39.49780273 66.77905273 C-39.43711742 68.91160595 -39.40878884 71.04252205 -39.38671875 73.17578125 C-39.36053467 74.45880127 -39.33435059 75.74182129 -39.30737305 77.0637207 C-39.875 80.25 -39.875 80.25 -42.20166016 82.16943359 C-45.47665374 83.49318899 -48.03689578 83.61476095 -51.5625 83.5625 C-53.26986328 83.55669922 -53.26986328 83.55669922 -55.01171875 83.55078125 C-57.875 83.25 -57.875 83.25 -59.875 81.25 C-60.10546875 79.15625 -60.10546875 79.15625 -60.0625 76.75 C-60.05605469 75.9559375 -60.04960937 75.161875 -60.04296875 74.34375 C-59.875 72.25 -59.875 72.25 -58.875 70.25 C-58.77432418 68.55071211 -58.73664075 66.84751726 -58.72973633 65.14526367 C-58.72335648 64.08043259 -58.71697662 63.0156015 -58.71040344 61.91850281 C-58.70929062 60.76332657 -58.7081778 59.60815033 -58.70703125 58.41796875 C-58.70370285 57.23407059 -58.70037445 56.05017242 -58.69694519 54.83039856 C-58.69187423 52.32109975 -58.68953692 49.81179417 -58.68969727 47.30249023 C-58.68751502 43.46391651 -58.66937247 39.62563204 -58.65039062 35.78710938 C-58.64745591 33.35156348 -58.64547164 30.91601623 -58.64453125 28.48046875 C-58.63734573 27.3313652 -58.63016022 26.18226166 -58.62275696 24.99833679 C-58.62583359 23.92404922 -58.62891022 22.84976166 -58.63208008 21.74291992 C-58.63065506 20.80075119 -58.62923004 19.85858246 -58.62776184 18.88786316 C-58.89730619 16.01200809 -59.75886714 13.8985115 -60.875 11.25 C-61.40942222 5.05070228 -61.40942222 5.05070228 -59.75390625 2.5703125 C-57.01306879 0.64431861 -54.81889286 0.78037888 -51.5 0.75 C-50.37851562 0.7190625 -49.25703125 0.688125 -48.1015625 0.65625 C-44.875 1.25 -44.875 1.25 -41.96875 3.0234375 C-38.75503 7.97592392 -39.45714472 12.62005326 -39.75 18.375 C-39.84429233 20.54372361 -39.92563069 22.71306059 -39.9921875 24.8828125 C-40.03972168 25.84074707 -40.08725586 26.79868164 -40.13623047 27.78564453 C-39.82469124 30.72459494 -39.05099191 31.37011952 -36.875 33.25 C-36.875 33.91 -36.875 34.57 -36.875 35.25 C-28.955 35.25 -21.035 35.25 -12.875 35.25 C-10.86210529 31.22421059 -10.65709165 29.87419231 -10.78515625 25.56640625 C-10.81512695 23.92768555 -10.81512695 23.92768555 -10.84570312 22.25585938 C-10.90679985 19.96408237 -10.97189093 17.67240829 -11.04101562 15.38085938 C-11.06905273 13.74020508 -11.06905273 13.74020508 -11.09765625 12.06640625 C-11.12609619 11.07068604 -11.15453613 10.07496582 -11.18383789 9.04907227 C-10.81946346 5.74665899 -9.82638715 3.91345569 -7.875 1.25 C-5.18393093 -0.09553453 -3.00334578 0.04405886 0 0 Z " fill="#87D55F" transform="translate(476.875,241.75)"/>
<path d="M0 0 C0.85029785 0.00161133 1.7005957 0.00322266 2.57666016 0.00488281 C8.73166451 0.12554598 13.55416556 0.88271783 18.75 4.375 C19.760625 4.931875 20.77125 5.48875 21.8125 6.0625 C24.4013403 9.15240616 24.23361348 11.32895338 24.12109375 15.25390625 C23.75 17.375 23.75 17.375 21.75 20.375 C17.36110675 19.71001617 13.7688515 18.18742323 9.75 16.375 C9.75 15.715 9.75 15.055 9.75 14.375 C2.01663304 12.74692275 -5.35468283 12.02006284 -12.25 16.375 C-12.35933628 17.76903756 -12.43619553 19.16563776 -12.5 20.5625 C-12.56960938 21.72845703 -12.56960938 21.72845703 -12.640625 22.91796875 C-12.07703644 26.46294079 -10.8265797 27.87893841 -8.25 30.375 C-5.59576163 31.83324174 -2.83720059 32.88896935 0 33.9375 C16.55612252 40.27470143 16.55612252 40.27470143 22.75 47.375 C23.08 48.365 23.41 49.355 23.75 50.375 C24.74 50.87 24.74 50.87 25.75 51.375 C27.41290543 58.73929548 28.63647504 67.9924208 24.8125 74.8125 C21.09492667 79.84027826 15.63963459 83.41178847 9.75 85.375 C5.52522501 85.63679246 1.29450875 85.6064893 -2.9375 85.625 C-4.09701172 85.645625 -5.25652344 85.66625 -6.45117188 85.6875 C-13.14947872 85.71796416 -18.16320009 85.20690337 -24.25 82.375 C-25.425625 81.9109375 -25.425625 81.9109375 -26.625 81.4375 C-28.78163369 80.02739336 -29.28375836 78.75312059 -30.25 76.375 C-30.4453125 74.015625 -30.4453125 74.015625 -30.375 71.625 C-30.34792969 70.42617188 -30.34792969 70.42617188 -30.3203125 69.203125 C-30.28550781 68.29820312 -30.28550781 68.29820312 -30.25 67.375 C-29.59 67.375 -28.93 67.375 -28.25 67.375 C-27.92 66.385 -27.59 65.395 -27.25 64.375 C-22.9398448 64.92738451 -20.41611737 66.48252367 -16.875 68.9375 C-9.6997168 73.2818402 -3.45238481 73.48902582 4.75 72.375 C7.094863 71.65885609 7.094863 71.65885609 8.75 70.375 C9.95190901 66.76927296 10.07670315 64.1647565 9.75 60.375 C5.03885333 52.13049333 -4.3672595 49.4241225 -12.8828125 46.68359375 C-18.77160628 44.3950254 -22.48888853 41.80072691 -25.5625 36.25 C-26.05363281 35.38117188 -26.54476563 34.51234375 -27.05078125 33.6171875 C-29.91746575 28.25732788 -29.80235852 23.413111 -29.25 17.375 C-27.76196263 12.57935625 -25.25103492 8.46151265 -21.25 5.375 C-17.8125 3.75 -17.8125 3.75 -14.25 2.375 C-13.54230469 2.024375 -12.83460938 1.67375 -12.10546875 1.3125 C-8.05986201 -0.01574298 -4.23386863 -0.0082355 0 0 Z " fill="#8AD563" transform="translate(374.25,240.625)"/>
<path d="M0 0 C5.44399378 2.39834482 9.39957639 6.69913649 12 12 C15.55519261 23.0946528 15.54137382 38.65310931 13 50 C11.328125 52.8359375 11.328125 52.8359375 9.25 55.375 C8.57453125 56.22835937 7.8990625 57.08171875 7.203125 57.9609375 C4.74716551 60.23400639 3.28531438 60.68984794 0 61 C0 61.66 0 62.32 0 63 C-1.72880982 63.05449838 -3.45812712 63.09301688 -5.1875 63.125 C-6.15042969 63.14820313 -7.11335937 63.17140625 -8.10546875 63.1953125 C-11.98811959 62.93332526 -14.76423575 62.13399543 -17.66015625 59.4765625 C-24.63887151 50.26232564 -26.34820487 41.23068006 -26.4375 29.875 C-26.45272705 28.49803955 -26.45272705 28.49803955 -26.46826172 27.09326172 C-26.3648086 18.95834956 -25.31582241 10.51896098 -19.4375 4.4375 C-18.83808594 3.79683594 -18.23867188 3.15617187 -17.62109375 2.49609375 C-13.00263893 -1.76623925 -5.84501375 -0.67294566 0 0 Z " fill="#FCFEFB" transform="translate(619,253)"/>
<path d="M0 0 C2.79173055 -0.02690104 5.58320348 -0.04679053 8.375 -0.0625 C9.56609375 -0.07506836 9.56609375 -0.07506836 10.78125 -0.08789062 C16.7734375 -0.11328125 16.7734375 -0.11328125 19 1 C19 1.66 19 2.32 19 3 C19.59683594 3.10183594 20.19367188 3.20367187 20.80859375 3.30859375 C23.38616585 4.12183842 24.31995331 5.02255867 26.0625 7.0625 C26.79146484 7.88427734 26.79146484 7.88427734 27.53515625 8.72265625 C32.1429058 15.88617089 32.49450784 22.57258484 32.4375 30.875 C32.4674707 32.41220703 32.4674707 32.41220703 32.49804688 33.98046875 C32.4927012 42.39455423 30.97999213 50.18661931 25.0625 56.5 C19.37339438 61.14416786 14.75909696 61.27011564 7.6875 61.125 C6.85154297 61.11597656 6.01558594 61.10695313 5.15429688 61.09765625 C3.10274031 61.07420989 1.05133223 61.03834266 -1 61 C-1.02316465 53.48955919 -1.04093616 45.97912207 -1.05181217 38.46865368 C-1.05703196 34.98128689 -1.06411324 31.49394453 -1.07543945 28.0065918 C-1.08837754 23.99788172 -1.09323569 19.98919733 -1.09765625 15.98046875 C-1.10281754 14.72727341 -1.10797882 13.47407806 -1.11329651 12.1829071 C-1.11337204 11.02193008 -1.11344757 9.86095306 -1.11352539 8.66479492 C-1.115746 7.64109299 -1.11796661 6.61739105 -1.12025452 5.56266785 C-1 3 -1 3 0 0 Z " fill="#FCFEFB" transform="translate(237,253)"/>
<path d="M0 0 C0.80695313 -0.00708984 1.61390625 -0.01417969 2.4453125 -0.02148438 C5.96528018 0.01627105 8.384147 0.11486515 11.53515625 1.765625 C13 3.4375 13 3.4375 13.4375 6.625 C13 10.4375 13 10.4375 11.49755859 13.97021484 C9.48817359 19.1813688 9.56838592 24.19938752 9.6015625 29.7265625 C9.59869232 30.78861908 9.59582214 31.85067566 9.59286499 32.94491577 C9.59083258 35.17877743 9.5963045 37.41265722 9.60888672 39.64648438 C9.62498348 43.0589986 9.60899291 46.47033425 9.58984375 49.8828125 C9.5918257 52.05989844 9.59566839 54.23698364 9.6015625 56.4140625 C9.59548981 57.42981354 9.58941711 58.44556458 9.5831604 59.49209595 C9.63740646 64.96886798 10.09632273 68.63363961 13 73.4375 C13.29296875 75.9921875 13.29296875 75.9921875 13.1875 78.3125 C13.16042969 79.09367187 13.13335937 79.87484375 13.10546875 80.6796875 C13.07066406 81.25976562 13.03585937 81.83984375 13 82.4375 C9.20995308 84.9345882 5.37030295 84.70021355 1 84.625 C-0.06734375 84.6240332 -0.06734375 84.6240332 -1.15625 84.62304688 C-8.29328828 84.56312771 -8.29328828 84.56312771 -11 83.4375 C-13.51475368 79.66536948 -13.44796416 77.91714158 -13 73.4375 C-12.34032227 72.45386475 -11.68064453 71.47022949 -11.00097656 70.45678711 C-7.99378361 65.3912882 -8.50193944 60.11001665 -8.609375 54.37890625 C-8.61503479 53.23461655 -8.62069458 52.09032684 -8.62652588 50.91136169 C-8.64883044 47.27380699 -8.69901832 43.6372546 -8.75 40 C-8.77007254 37.52670698 -8.78832198 35.05339845 -8.8046875 32.58007812 C-8.84867593 26.53221287 -8.91552975 20.48492807 -9 14.4375 C-9.66 14.4375 -10.32 14.4375 -11 14.4375 C-12.58505557 10.97019093 -13.58750054 8.25625349 -13 4.4375 C-9.54850613 -0.58285472 -5.57017236 -0.1379196 0 0 Z " fill="#86D45C" transform="translate(315,241.5625)"/>
<path d="M0 0 C6.0018137 -0.21824777 11.19233704 0.4943096 17 2 C17 2.66 17 3.32 17 4 C17.66 4 18.32 4 19 4 C19 4.66 19 5.32 19 6 C19.680625 6.165 20.36125 6.33 21.0625 6.5 C29.86048911 10.99259018 32.7746543 19.48951529 35.8359375 28.29296875 C37.58330633 33.85757619 38.11714694 38.46527711 38.0625 44.3125 C38.05347656 45.56675781 38.04445313 46.82101563 38.03515625 48.11328125 C38.02355469 49.06589844 38.01195312 50.01851562 38 51 C37.38769531 50.25363281 36.77539062 49.50726563 36.14453125 48.73828125 C32.39203162 44.98578162 27.63769076 43.77226072 22.6875 42.1875 C21.29047852 41.72053711 21.29047852 41.72053711 19.86523438 41.24414062 C17.58087614 40.48268788 15.29291477 39.73519866 13 39 C13 38.34 13 37.68 13 37 C12.278125 36.79375 11.55625 36.5875 10.8125 36.375 C3.4439135 32.77257993 0.47016455 24.55289767 -2.5 17.375 C-5.55025391 10.5119287 -8.40143596 7.29928202 -15 4 C-15 3.34 -15 2.68 -15 2 C-3.84716385 0.8144623 3.97680006 4.84948306 12.8125 11.375 C19.6469646 17.00848078 24.39148488 22.91692613 28 31 C26.65404351 22.20433082 20.85012072 14.48277764 14 9 C9.50743103 5.9933812 4.85283642 3.37621645 0 1 C0 0.67 0 0.34 0 0 Z " fill="#53AD4B" transform="translate(277,176)"/>
<path d="M0 0 C3.94219208 1.24490276 5.51673245 2.50401489 8.375 5.4375 C10.75216223 10.64897104 10.88233553 15.36662697 10 21 C8.48891501 24.45817474 6.47007448 26.96575937 3.33984375 29.16796875 C-0.12995254 30.40180282 -3.55440323 30.24885897 -7.1875 30.1875 C-7.92419922 30.18685547 -8.66089844 30.18621094 -9.41992188 30.18554688 C-14.85949096 30.14050904 -14.85949096 30.14050904 -16 29 C-16.28150942 24.71508535 -16.23182832 20.41805904 -16.25 16.125 C-16.270625 14.91457031 -16.29125 13.70414062 -16.3125 12.45703125 C-16.31765625 11.29816406 -16.3228125 10.13929688 -16.328125 8.9453125 C-16.3374707 7.87812988 -16.34681641 6.81094727 -16.35644531 5.71142578 C-16 3 -16 3 -14.66235352 1.15332031 C-10.68003171 -1.60956531 -4.60935719 -0.40871147 0 0 Z " fill="#FAFEF7" transform="translate(539,253)"/>
<path d="M0 0 C4.50790779 3.50739958 5.4947898 7.52435267 6.171875 12.93359375 C6.69241719 20.87922831 6.69241719 20.87922831 4.3203125 24.16796875 C-0.52470111 28.32803241 -3.77875297 29.23187467 -10.18359375 29.21875 C-12.07078125 29.22261719 -12.07078125 29.22261719 -13.99609375 29.2265625 C-17.18359375 29.09375 -17.18359375 29.09375 -19.18359375 28.09375 C-19.18359375 18.85375 -19.18359375 9.61375 -19.18359375 0.09375 C-13.44716999 -1.81839125 -5.66385006 -2.35064976 0 0 Z " fill="#FBFEF8" transform="translate(705.18359375,253.90625)"/>
<path d="M0 0 C9.02216416 -0.95904895 15.3696429 1.16037536 23 6 C24.84375 7.69921875 24.84375 7.69921875 26 9 C22.25 14.75 22.25 14.75 20 17 C19.87776892 23.11155419 22.20181733 25.93679545 26.30859375 30.30078125 C27.53752383 31.53538768 28.76822848 32.76822848 30 34 C28.375 34.8125 28.375 34.8125 26 35 C18.77800645 30.60400392 15.50454907 22.78300019 12.375 15.1875 C9.43720167 8.37714932 6.49713102 5.24856551 0 2 C0 1.34 0 0.68 0 0 Z " fill="#54AD4A" transform="translate(262,178)"/>
<path d="M0 0 C6.0018137 -0.21824777 11.19233704 0.4943096 17 2 C17 2.66 17 3.32 17 4 C17.66 4 18.32 4 19 4 C19 4.66 19 5.32 19 6 C19.680625 6.165 20.36125 6.33 21.0625 6.5 C28.17237435 10.13057414 31.69637149 16.67683864 34.46875 23.8984375 C35 26 35 26 34 28 C33.34 27.67 32.68 27.34 32 27 C32 25.02 32 23.04 32 21 C31.34 21 30.68 21 30 21 C30 25.29 30 29.58 30 34 C28.515 33.505 28.515 33.505 27 33 C27.20367187 32.26136719 27.40734375 31.52273437 27.6171875 30.76171875 C28.28242971 25.96247137 25.65839474 22.84463495 23 19 C16.53126447 10.56141377 9.416383 5.65432203 0 1 C0 0.67 0 0.34 0 0 Z " fill="#65B259" transform="translate(277,176)"/>
<path d="M0 0 C0.84046875 0.01804688 1.6809375 0.03609375 2.546875 0.0546875 C4.61507395 0.10169202 6.68268441 0.17343276 8.75 0.25 C8.75 0.58 8.75 0.91 8.75 1.25 C7.62980469 1.29898438 6.50960938 1.34796875 5.35546875 1.3984375 C3.88278797 1.47347856 2.41013293 1.54902582 0.9375 1.625 C0.19951172 1.6559375 -0.53847656 1.686875 -1.29882812 1.71875 C-5.06893115 1.92346148 -7.04650741 2.11433827 -10.25 4.25 C-10.61297936 6.22747122 -10.61297936 6.22747122 -10.4375 8.375 C-10.375625 9.65375 -10.31375 10.9325 -10.25 12.25 C-8.93 12.25 -7.61 12.25 -6.25 12.25 C-6.22468784 19.88549086 -6.20714912 27.52097095 -6.19506836 35.15649414 C-6.19003319 37.75513107 -6.1832047 40.35376515 -6.17456055 42.95239258 C-6.16245938 46.68311259 -6.15676359 50.41379522 -6.15234375 54.14453125 C-6.14718246 55.31023148 -6.14202118 56.4759317 -6.13670349 57.67695618 C-6.13662796 58.75785019 -6.13655243 59.8387442 -6.13647461 60.95239258 C-6.134254 61.90503494 -6.13203339 62.85767731 -6.12974548 63.83918762 C-6.25 66.25 -6.25 66.25 -7.25 69.25 C-7.91 69.25 -8.57 69.25 -9.25 69.25 C-9.29898437 69.94867188 -9.34796875 70.64734375 -9.3984375 71.3671875 C-9.47320312 72.27726562 -9.54796875 73.18734375 -9.625 74.125 C-9.72941406 75.48238281 -9.72941406 75.48238281 -9.8359375 76.8671875 C-10.25 79.25 -10.25 79.25 -12.25 81.25 C-13.25 80.25 -13.25 80.25 -13.5625 77.125 C-13.25 73.25 -13.25 73.25 -11.25488281 70.26147461 C-8.24036747 65.20091685 -8.75196361 59.92122772 -8.859375 54.19140625 C-8.86503479 53.04711655 -8.87069458 51.90282684 -8.87652588 50.72386169 C-8.89883044 47.08630699 -8.94901832 43.4497546 -9 39.8125 C-9.02007254 37.33920698 -9.03832198 34.86589845 -9.0546875 32.39257812 C-9.09867593 26.34471287 -9.16552975 20.29742807 -9.25 14.25 C-9.91 14.25 -10.57 14.25 -11.25 14.25 C-12.83505557 10.78269093 -13.83750054 8.06875349 -13.25 4.25 C-9.77727681 -0.88399888 -5.62337837 -0.22844975 0 0 Z " fill="#99D47C" transform="translate(315.25,241.75)"/>
<path d="M0 0 C0 0.66 0 1.32 0 2 C0.99 2 1.98 2 3 2 C3 2.66 3 3.32 3 4 C3.66 4 4.32 4 5 4 C5 4.66 5 5.32 5 6 C5.66 6.33 6.32 6.66 7 7 C8.22697594 11.23426992 8.32025064 15.61729968 8.4375 20 C8.48326172 20.69867188 8.52902344 21.39734375 8.57617188 22.1171875 C8.63839533 24.98487714 8.56785828 27.28524954 6.7409668 29.5847168 C-0.09221518 35.49749804 -9.44200712 34.40695351 -18 34 C-18.66 33.67 -19.32 33.34 -20 33 C-20.05805933 28.75005737 -20.09361654 24.50021676 -20.125 20.25 C-20.14175781 19.0434375 -20.15851562 17.836875 -20.17578125 16.59375 C-20.18222656 15.43359375 -20.18867187 14.2734375 -20.1953125 13.078125 C-20.20578613 12.00981445 -20.21625977 10.94150391 -20.22705078 9.84082031 C-20 7 -20 7 -18 3 C-18 12.24 -18 21.48 -18 31 C-14.225625 31.12375 -14.225625 31.12375 -10.375 31.25 C-9.59431152 31.28641602 -8.81362305 31.32283203 -8.00927734 31.36035156 C-2.87787108 31.44112008 -0.09562569 30.32077759 4 27 C6.65210177 24.34789823 6.29859444 23.00674401 6.3125 19.3125 C6.20543556 13.35971728 5.66809553 8.79888453 1.40625 4.328125 C-2.06707106 2.41103221 -5.39670296 2.67974507 -9.25 2.8125 C-10.36761719 2.83280273 -10.36761719 2.83280273 -11.5078125 2.85351562 C-13.33885416 2.88872796 -15.16952169 2.94253149 -17 3 C-16.67 2.34 -16.34 1.68 -16 1 C-13.41796875 0.5859375 -13.41796875 0.5859375 -10.1875 0.375 C-9.12917969 0.30023438 -8.07085938 0.22546875 -6.98046875 0.1484375 C-4.65600081 0.03267108 -2.32734894 0 0 0 Z " fill="#A4D987" transform="translate(704,251)"/>
<path d="M0 0 C0.33 0 0.66 0 1 0 C1.00879936 0.88203598 1.00879936 0.88203598 1.01777649 1.78189087 C1.08182009 7.91431517 1.16626806 14.04622 1.26245117 20.17822266 C1.29566006 22.46526226 1.32370451 24.75238303 1.34643555 27.03955078 C1.3800551 30.33140578 1.43237624 33.62251972 1.48828125 36.9140625 C1.49467117 37.93303619 1.5010611 38.95200989 1.50764465 40.00186157 C1.6205198 45.47930694 2.10444942 49.19437531 5 54 C5.29296875 56.5546875 5.29296875 56.5546875 5.1875 58.875 C5.16042969 59.65617187 5.13335937 60.43734375 5.10546875 61.2421875 C5.07066406 61.82226562 5.03585937 62.40234375 5 63 C1.1584024 65.56780471 -2.8139175 65.22688882 -7.25 65.125 C-7.99507813 65.11597656 -8.74015625 65.10695313 -9.5078125 65.09765625 C-11.33868059 65.07418358 -13.16938238 65.03831525 -15 65 C-15 64.67 -15 64.34 -15 64 C-14.28714844 63.93941406 -13.57429688 63.87882812 -12.83984375 63.81640625 C-7.53039712 63.35191899 -2.266591 62.81924749 3 62 C2.67 59.03 2.34 56.06 2 53 C1.01 53 0.02 53 -1 53 C-1.02529174 45.77344508 -1.04284219 38.5469015 -1.05493164 31.3203125 C-1.05996989 28.86034722 -1.0668006 26.40038495 -1.07543945 23.94042969 C-1.08752723 20.41079975 -1.09323329 16.88120931 -1.09765625 13.3515625 C-1.10281754 12.24632233 -1.10797882 11.14108215 -1.11329651 10.00234985 C-1.11337204 8.98144257 -1.11344757 7.96053528 -1.11352539 6.90869141 C-1.115746 6.00712311 -1.11796661 5.10555481 -1.12025452 4.17666626 C-1 2 -1 2 0 0 Z " fill="#9ED980" transform="translate(323,261)"/>
<path d="M0 0 C2.64 0 5.28 0 8 0 C8 0.33 8 0.66 8 1 C6.35 1.33 4.7 1.66 3 2 C3.60585938 2.25652344 4.21171875 2.51304687 4.8359375 2.77734375 C15.43568137 7.62061133 23.26155518 14.86078837 29 25 C29.4021875 25.66386719 29.804375 26.32773438 30.21875 27.01171875 C31.16793656 29.42739855 30.85840147 30.59647589 30 33 C29.6596875 32.38253906 29.319375 31.76507813 28.96875 31.12890625 C21.51505663 18.1047665 12.16265454 9.35033616 -2 4 C-1.34 3.67 -0.68 3.34 0 3 C0 2.01 0 1.02 0 0 Z " fill="#DDF4D5" transform="translate(275,175)"/>
<path d="M0 0 C1.0725 -0.02578125 2.145 -0.0515625 3.25 -0.078125 C4.1575 0.03015625 5.065 0.1384375 6 0.25 C6.66 1.24 7.32 2.23 8 3.25 C7.09636719 3.19199219 6.19273437 3.13398438 5.26171875 3.07421875 C4.08222656 3.02910156 2.90273438 2.98398438 1.6875 2.9375 C-0.07013672 2.85048828 -0.07013672 2.85048828 -1.86328125 2.76171875 C-5.1296044 2.903512 -5.1296044 2.903512 -6.69799805 5.4284668 C-8.17278314 8.62443367 -8.24684866 10.40132103 -7.96875 13.8828125 C-7.90042969 14.93597656 -7.83210938 15.98914063 -7.76171875 17.07421875 C-7.67535156 18.16347656 -7.58898437 19.25273437 -7.5 20.375 C-7.32929712 22.54318139 -7.1723865 24.71250595 -7.03125 26.8828125 C-6.95455078 27.84074707 -6.87785156 28.79868164 -6.79882812 29.78564453 C-7 32.25 -7 32.25 -8.31054688 34.08544922 C-10 35.25 -10 35.25 -13 35.25 C-12.67185303 34.70722412 -12.34370605 34.16444824 -12.00561523 33.60522461 C-10.77962875 30.73387437 -10.81755912 28.68115156 -10.91015625 25.56640625 C-10.93013672 24.47392578 -10.95011719 23.38144531 -10.97070312 22.25585938 C-11.03179985 19.96408237 -11.09689093 17.67240829 -11.16601562 15.38085938 C-11.18470703 14.28708984 -11.20339844 13.19332031 -11.22265625 12.06640625 C-11.25109619 11.07068604 -11.27953613 10.07496582 -11.30883789 9.04907227 C-10.94446346 5.74665899 -9.95138715 3.91345569 -8 1.25 C-5.27976922 -0.11011539 -3.0338119 0.0437569 0 0 Z " fill="#8FD06E" transform="translate(477,241.75)"/>
<path d="M0 0 C3.77513172 0.94378293 4.8972149 1.84884545 7.125 5.125 C8.46033623 7.67427826 9.42338201 10.2054829 10.3125 12.9375 C12.34293292 18.72423383 16.74536025 22.74536025 21 27 C19.375 27.8125 19.375 27.8125 17 28 C8.90417933 23.07210916 5.39808021 13.49520052 2 5 C1.608125 4.030625 1.21625 3.06125 0.8125 2.0625 C0.544375 1.381875 0.27625 0.70125 0 0 Z " fill="#75BD64" transform="translate(271,185)"/>
<path d="M0 0 C2.79173055 -0.02690104 5.58320348 -0.04679053 8.375 -0.0625 C9.56609375 -0.07506836 9.56609375 -0.07506836 10.78125 -0.08789062 C16.7734375 -0.11328125 16.7734375 -0.11328125 19 1 C19 1.66 19 2.32 19 3 C17.86820313 2.96519531 16.73640625 2.93039063 15.5703125 2.89453125 C14.08855647 2.86639664 12.60678444 2.83909613 11.125 2.8125 C10.37863281 2.78736328 9.63226563 2.76222656 8.86328125 2.73632812 C6.43778172 2.6701236 6.43778172 2.6701236 3 3 C0.7556805 6.36647925 0.7549484 7.45622646 0.77294922 11.3894043 C0.77310028 12.49031906 0.77325134 13.59123383 0.77340698 14.72550964 C0.78372955 15.91308365 0.79405212 17.10065765 0.8046875 18.32421875 C0.8075174 19.54075638 0.81034729 20.75729401 0.81326294 22.01069641 C0.82447397 25.90306358 0.84958052 29.79520216 0.875 33.6875 C0.88502859 36.32356439 0.89415465 38.95963238 0.90234375 41.59570312 C0.92441634 48.06388032 0.95790312 54.53192383 1 61 C0.34 61 -0.32 61 -1 61 C-1.02316465 53.48955919 -1.04093616 45.97912207 -1.05181217 38.46865368 C-1.05703196 34.98128689 -1.06411324 31.49394453 -1.07543945 28.0065918 C-1.08837754 23.99788172 -1.09323569 19.98919733 -1.09765625 15.98046875 C-1.10281754 14.72727341 -1.10797882 13.47407806 -1.11329651 12.1829071 C-1.11337204 11.02193008 -1.11344757 9.86095306 -1.11352539 8.66479492 C-1.115746 7.64109299 -1.11796661 6.61739105 -1.12025452 5.56266785 C-1 3 -1 3 0 0 Z " fill="#E2F9D4" transform="translate(237,253)"/>
<path d="M0 0 C6.0018137 -0.21824777 11.19233704 0.4943096 17 2 C17 2.66 17 3.32 17 4 C17.66 4 18.32 4 19 4 C19 4.66 19 5.32 19 6 C19.804375 6.28875 20.60875 6.5775 21.4375 6.875 C24 8 24 8 25 10 C22.525 9.505 22.525 9.505 20 9 C19.34 10.32 18.68 11.64 18 13 C17.53851563 12.55269531 17.07703125 12.10539063 16.6015625 11.64453125 C11.50440819 6.92009376 6.33715669 3.81795697 0 1 C0 0.67 0 0.34 0 0 Z " fill="#6AB361" transform="translate(277,176)"/>
<path d="M0 0 C0.92232422 0.00451172 1.84464844 0.00902344 2.79492188 0.01367188 C5.05085048 0.02536062 7.30663967 0.04174545 9.5625 0.0625 C9.5625 0.3925 9.5625 0.7225 9.5625 1.0625 C-3.8025 2.0525 -3.8025 2.0525 -17.4375 3.0625 C-17.19 7.084375 -17.19 7.084375 -16.9375 11.1875 C-16.75635158 14.47851317 -16.5951591 17.77028519 -16.4375 21.0625 C-16.40060059 21.78131348 -16.36370117 22.50012695 -16.32568359 23.24072266 C-16.23563103 25.15953491 -16.17928716 27.07984302 -16.125 29 C-16.08761719 30.10214844 -16.05023438 31.20429688 -16.01171875 32.33984375 C-16.4375 35.0625 -16.4375 35.0625 -18.00390625 36.9296875 C-21.3403268 38.48275645 -24.02515166 38.3517319 -27.6875 38.25 C-28.95078125 38.22292969 -30.2140625 38.19585937 -31.515625 38.16796875 C-32.47984375 38.13316406 -33.4440625 38.09835937 -34.4375 38.0625 C-34.4375 37.4025 -34.4375 36.7425 -34.4375 36.0625 C-33.61765625 36.01351562 -32.7978125 35.96453125 -31.953125 35.9140625 C-30.33664062 35.80191406 -30.33664062 35.80191406 -28.6875 35.6875 C-27.08648437 35.58308594 -27.08648437 35.58308594 -25.453125 35.4765625 C-22.59240088 35.08376877 -20.93592262 34.40599141 -18.4375 33.0625 C-18.44273682 32.12865479 -18.44797363 31.19480957 -18.45336914 30.23266602 C-18.4703762 26.77937204 -18.48293302 23.32612233 -18.49243164 19.87280273 C-18.49747121 18.37605082 -18.50430287 16.87930384 -18.51293945 15.38256836 C-18.52502159 13.23550193 -18.53073191 11.08850038 -18.53515625 8.94140625 C-18.54039307 7.6479126 -18.54562988 6.35441895 -18.55102539 5.02172852 C-18.4375 2.0625 -18.4375 2.0625 -17.4375 1.0625 C-11.61597759 -0.05491974 -5.91220686 -0.05533383 0 0 Z " fill="#E5FAD9" transform="translate(454.4375,288.9375)"/>
<path d="M0 0 C0.66 0 1.32 0 2 0 C3.09061462 5.1923538 3.04757531 10.07040923 2.87890625 15.3359375 C2.85529526 16.21528961 2.83168427 17.09464172 2.80735779 18.00064087 C2.73116134 20.7922764 2.64694926 23.58360315 2.5625 26.375 C2.50923518 28.27472478 2.45649512 30.17446436 2.40429688 32.07421875 C2.27560622 36.71633908 2.13972929 41.35819935 2 46 C1.01 46.495 1.01 46.495 0 47 C0 31.49 0 15.98 0 0 Z " fill="#96D279" transform="translate(507,251)"/>
<path d="M0 0 C1.76923828 0.04060547 1.76923828 0.04060547 3.57421875 0.08203125 C4.47785156 0.11683594 5.38148438 0.15164062 6.3125 0.1875 C6.3125 0.5175 6.3125 0.8475 6.3125 1.1875 C2.3525 1.1875 -1.6075 1.1875 -5.6875 1.1875 C-5.6875 2.8375 -5.6875 4.4875 -5.6875 6.1875 C-6.3475 6.1875 -7.0075 6.1875 -7.6875 6.1875 C-7.36152832 6.93531738 -7.03555664 7.68313477 -6.69970703 8.45361328 C-5.29188043 13.6468839 -5.44121339 18.57382483 -5.4921875 23.9296875 C-5.49643234 25.61495041 -5.49643234 25.61495041 -5.50076294 27.33425903 C-5.51192697 30.91044927 -5.53702499 34.4863859 -5.5625 38.0625 C-5.57253467 40.49218387 -5.58165967 42.92187169 -5.58984375 45.3515625 C-5.61185396 51.29696102 -5.64529411 57.24221239 -5.6875 63.1875 C-6.0175 63.1875 -6.3475 63.1875 -6.6875 63.1875 C-6.69558685 62.5972554 -6.70367371 62.0070108 -6.71200562 61.39888 C-6.79812433 55.25048432 -6.89763127 49.10240831 -7.00488281 42.9543457 C-7.04314405 40.66045504 -7.07800189 38.36650497 -7.109375 36.07250977 C-7.15508706 32.7733844 -7.21307222 29.47466704 -7.2734375 26.17578125 C-7.29076431 24.63957878 -7.29076431 24.63957878 -7.30844116 23.07234192 C-7.32831085 22.11172348 -7.34818054 21.15110504 -7.36865234 20.16137695 C-7.38197601 19.31976517 -7.39529968 18.47815338 -7.4090271 17.61103821 C-7.72456124 14.86495757 -8.63443381 12.73239656 -9.6875 10.1875 C-10.22012101 4.00909624 -10.22012101 4.00909624 -8.5859375 1.48828125 C-5.74743012 -0.45662195 -3.39168031 -0.10074298 0 0 Z " fill="#A4D78A" transform="translate(425.6875,242.8125)"/>
<path d="M0 0 C0.99 0.33 1.98 0.66 3 1 C2.98952637 1.9286084 2.97905273 2.8572168 2.96826172 3.81396484 C2.93420796 7.2542569 2.90911507 10.69437027 2.89013672 14.13476562 C2.88006957 15.6247032 2.86641482 17.11462097 2.84912109 18.60449219 C2.82490347 20.74419028 2.81352436 22.88362753 2.8046875 25.0234375 C2.79421387 26.31169434 2.78374023 27.59995117 2.77294922 28.92724609 C2.67162336 32.10700806 2.67162336 32.10700806 5 34 C7.52475716 34.19893799 9.91514749 34.27847435 12.4375 34.25 C13.11876953 34.25773437 13.80003906 34.26546875 14.50195312 34.2734375 C18.21409442 34.25889434 19.83589372 34.10940418 23 32 C22.01 34.475 22.01 34.475 21 37 C18.24849263 36.91288896 15.50018367 36.80600385 12.75 36.6875 C11.97269531 36.66494141 11.19539063 36.64238281 10.39453125 36.61914062 C7.02694281 36.46083519 4.53291904 36.25781091 1.47265625 34.77734375 C-0.53230146 32.35756721 -0.43858373 30.99665928 -0.3125 27.875 C-0.27898437 26.82054687 -0.24546875 25.76609375 -0.2109375 24.6796875 C-0.05594984 21.97601386 0.10487394 19.27314199 0.2734375 16.5703125 C0.34365112 15.43553467 0.34365112 15.43553467 0.4152832 14.27783203 C0.51203444 12.78083531 0.61709433 11.28434814 0.73120117 9.78857422 C0.9740801 6.3336717 1.16054346 3.3011014 0 0 Z " fill="#F3FEEF" transform="translate(464,290)"/>
<path d="M0 0 C0.66 0.33 1.32 0.66 2 1 C2.02698422 3.43757413 2.04683099 5.87484915 2.0625 8.3125 C2.07087891 9.00279297 2.07925781 9.69308594 2.08789062 10.40429688 C2.10307906 13.5483025 2.00193327 15.99420019 1 19 C0.88340402 20.49676706 0.82501041 21.99875061 0.8125 23.5 C0.79832031 24.2734375 0.78414063 25.046875 0.76953125 25.84375 C0.86338472 28.29680056 0.86338472 28.29680056 3 31 C6.35503476 31.36558117 6.35503476 31.36558117 10.125 31.1875 C11.40632813 31.16042969 12.68765625 31.13335937 14.0078125 31.10546875 C14.99523437 31.07066406 15.98265625 31.03585937 17 31 C17.33 28.03 17.66 25.06 18 22 C20.15502531 25.23253796 20.46856135 26.25150923 20 30 C18.94921875 31.6328125 18.94921875 31.6328125 17 33 C14.39958045 33.29869684 12.09300841 33.41945157 9.5 33.375 C8.82324219 33.38660156 8.14648438 33.39820313 7.44921875 33.41015625 C4.6507464 33.39359724 2.49324141 33.2870665 0.046875 31.86328125 C-1.49516823 29.11867446 -1.32213654 26.94683274 -1.25 23.8125 C-1.22421875 22.57886719 -1.1984375 21.34523438 -1.171875 20.07421875 C-0.91552671 13.37465489 -0.48627872 6.68633246 0 0 Z " fill="#9DD483" transform="translate(467,292)"/>
<path d="M0 0 C0.66 0 1.32 0 2 0 C2 3.3 2 6.6 2 10 C1.34 10 0.68 10 0 10 C0.020625 11.27875 0.04125 12.5575 0.0625 13.875 C0.125 17.75 0.125 17.75 -1 20 C-1.09947981 23.05327936 -1.13978543 26.0832532 -1.1328125 29.13671875 C-1.13376923 30.04952103 -1.13472595 30.9623233 -1.13571167 31.90278625 C-1.13639316 33.83875599 -1.13454101 35.774728 -1.13037109 37.71069336 C-1.12505306 40.65809353 -1.13030117 43.60533916 -1.13671875 46.55273438 C-1.13605736 48.43489617 -1.13477495 50.31705786 -1.1328125 52.19921875 C-1.13483673 53.07551437 -1.13686096 53.95181 -1.13894653 54.85466003 C-1.12072214 59.67582797 -0.80961525 64.24562085 0 69 C-2 68 -2 68 -3 65 C-3.10162559 63.43181466 -3.14835464 61.85975292 -3.16113281 60.28833008 C-3.17074036 59.33336136 -3.1803479 58.37839264 -3.19024658 57.39448547 C-3.19449646 56.36325058 -3.19874634 55.33201569 -3.203125 54.26953125 C-3.20882507 53.20514328 -3.21452515 52.14075531 -3.22039795 51.04411316 C-3.22984974 48.78877761 -3.23638264 46.53342824 -3.24023438 44.27807617 C-3.2499131 40.84333845 -3.28092431 37.40920596 -3.3125 33.97460938 C-3.31903294 31.78125355 -3.32428227 29.58789344 -3.328125 27.39453125 C-3.3404718 26.37341751 -3.3528186 25.35230377 -3.36553955 24.30024719 C-3.34644066 18.12255862 -2.46218491 13.66483129 0 8 C0.35346718 5.56641675 0.35346718 5.56641675 0.1875 3.5 C0.125625 2.345 0.06375 1.19 0 0 Z " fill="#E8FCDF" transform="translate(327,244)"/>
<path d="M0 0 C2.49023964 2.49023964 2.26015421 3.2687717 2.29052734 6.70581055 C2.30328705 7.68410324 2.31604675 8.66239594 2.32919312 9.67033386 C2.33253159 11.26244438 2.33253159 11.26244438 2.3359375 12.88671875 C2.3425943 13.97708939 2.3492511 15.06746002 2.35610962 16.19087219 C2.36625201 18.50345164 2.37092615 20.81606044 2.37060547 23.12866211 C2.37496102 26.65593344 2.41121655 30.18193609 2.44921875 33.70898438 C2.45509017 35.95572489 2.45905739 38.20247135 2.4609375 40.44921875 C2.47530853 41.50050461 2.48967957 42.55179047 2.50448608 43.63493347 C2.46459837 50.07875827 1.57092744 53.64879286 -2 59 C-2.58385939 61.36470576 -2.8009638 63.56180653 -3 66 C-3.33 66 -3.66 66 -4 66 C-4.29268781 60.34136895 -4.03522952 56.97777642 -1 52 C-0.505 51.505 -0.505 51.505 0 51 C0.09333705 49.40389018 0.11745372 47.80366572 0.11352539 46.20483398 C0.11344986 45.18385117 0.11337433 44.16286835 0.11329651 43.11094666 C0.10813522 42.0005452 0.10297394 40.89014374 0.09765625 39.74609375 C0.09553383 38.05021873 0.09553383 38.05021873 0.09336853 36.32008362 C0.08775019 32.69252935 0.07519458 29.06503576 0.0625 25.4375 C0.05748736 22.98502693 0.05292405 20.5325529 0.04882812 18.08007812 C0.0377748 12.05336455 0.02101884 6.02668661 0 0 Z " fill="#DDFAD1" transform="translate(305,256)"/>
<path d="M0 0 C0.33 0 0.66 0 1 0 C1.02741912 1.5415636 1.04658248 3.08327474 1.0625 4.625 C1.07410156 5.48351562 1.08570313 6.34203125 1.09765625 7.2265625 C1 10 1 10 0.51367188 12.53515625 C-0.16300485 17.09950801 -0.23372028 21.60239666 -0.31640625 26.2109375 C-0.33718735 27.17907379 -0.35796844 28.14721008 -0.37937927 29.14468384 C-0.44448984 32.22138732 -0.50357998 35.29817236 -0.5625 38.375 C-0.60572186 40.46745617 -0.6493373 42.55990426 -0.69335938 44.65234375 C-0.80013156 49.76814669 -0.90150636 54.88403125 -1 60 C-1.33 60 -1.66 60 -2 60 C-2.05093396 52.90164269 -2.08583153 45.80333296 -2.10986328 38.70483398 C-2.11988754 36.29270669 -2.13351045 33.88059145 -2.15087891 31.46850586 C-2.17528462 27.9906923 -2.18651918 24.51304017 -2.1953125 21.03515625 C-2.20563507 19.96604507 -2.21595764 18.8969339 -2.22659302 17.79542542 C-2.22751862 11.54325381 -1.59471051 6.05051929 0 0 Z " fill="#DBF4CE" transform="translate(486,252)"/>
<path d="M0 0 C0.33 0 0.66 0 1 0 C1.04655738 7.27641172 1.08198717 14.55279076 1.10362434 21.82932186 C1.11401463 25.20894103 1.12808566 28.58845749 1.15087891 31.96801758 C1.17525279 35.86282011 1.18651203 39.75747862 1.1953125 43.65234375 C1.20563507 44.8526976 1.21595764 46.05305145 1.22659302 47.28977966 C1.22746292 53.85742905 0.71047506 59.65230276 -1 66 C-1.33 66 -1.66 66 -2 66 C-2.02687279 64.18757948 -2.04633715 62.37504767 -2.0625 60.5625 C-2.07410156 59.55316406 -2.08570313 58.54382813 -2.09765625 57.50390625 C-2 55 -2 55 -1 54 C-0.87700834 52.31290653 -0.82214742 50.62079097 -0.79467773 48.92944336 C-0.77473251 47.84839828 -0.75478729 46.76735321 -0.73423767 45.65354919 C-0.71752518 44.4775264 -0.70081268 43.3015036 -0.68359375 42.08984375 C-0.66281265 40.89267227 -0.64203156 39.69550079 -0.62062073 38.46205139 C-0.55499721 34.62059513 -0.49618097 30.77906799 -0.4375 26.9375 C-0.39432695 24.34048733 -0.35071307 21.74348194 -0.30664062 19.14648438 C-0.19930284 12.76439883 -0.09756069 6.38224207 0 0 Z " fill="#D8F6C6" transform="translate(506,250)"/>
<path d="M0 0 C2.20124135 3.30186202 2.25216996 4.30153335 2.25878906 8.13891602 C2.26509338 9.18753311 2.27139771 10.23615021 2.27789307 11.31654358 C2.2738446 12.45087326 2.26979614 13.58520294 2.265625 14.75390625 C2.26753845 15.9245311 2.2694519 17.09515594 2.27142334 18.30125427 C2.2727859 20.78360203 2.26908455 23.2659569 2.26074219 25.74829102 C2.25011092 29.52311547 2.26060053 33.29745668 2.2734375 37.07226562 C2.2721146 39.48698021 2.26954953 41.90169449 2.265625 44.31640625 C2.26967346 45.43656631 2.27372192 46.55672638 2.27789307 47.71083069 C2.23867058 54.37210531 1.59138638 60.5268686 0 67 C-0.33 67 -0.66 67 -1 67 C-1.02687279 65.18757948 -1.04633715 63.37504767 -1.0625 61.5625 C-1.07410156 60.55316406 -1.08570313 59.54382813 -1.09765625 58.50390625 C-1 56 -1 56 0 55 C0.0935919 53.28134591 0.11744611 51.55884256 0.11352539 49.83764648 C0.11344986 48.73658066 0.11337433 47.63551483 0.11329651 46.50108337 C0.10813522 45.3031868 0.10297394 44.10529022 0.09765625 42.87109375 C0.0962413 41.65172623 0.09482635 40.4323587 0.09336853 39.17604065 C0.08774967 35.2631693 0.07519396 31.35035419 0.0625 27.4375 C0.05748743 24.79231853 0.0529241 22.14713617 0.04882812 19.50195312 C0.03777411 13.00128274 0.02101764 6.50064539 0 0 Z " fill="#DCF9CE" transform="translate(417,255)"/>
<path d="M0 0 C0.66 0 1.32 0 2 0 C2 0.66 2 1.32 2 2 C2.99 2.33 3.98 2.66 5 3 C6.46208619 7.38625858 6.30602556 11.65379418 6.375 16.25 C6.41238281 17.17941406 6.44976562 18.10882813 6.48828125 19.06640625 C6.57281819 25.70725216 5.52676246 29.07322907 1 34 C-1.8125 34.9375 -1.8125 34.9375 -4 35 C-3.34 34.01 -2.68 33.02 -2 32 C-1.34 32 -0.68 32 0 32 C0.28875 31.236875 0.5775 30.47375 0.875 29.6875 C2 27 2 27 4 24 C4.27441372 21.8729569 4.27441372 21.8729569 4.1953125 19.55078125 C4.18886719 18.70322266 4.18242187 17.85566406 4.17578125 16.98242188 C4.15902344 16.10134766 4.14226562 15.22027344 4.125 14.3125 C4.11597656 13.41982422 4.10695313 12.52714844 4.09765625 11.60742188 C4.07409748 9.40467686 4.04120329 7.20247412 4 5 C3.01 4.67 2.02 4.34 1 4 C0.3125 1.9375 0.3125 1.9375 0 0 Z " fill="#CBEDB7" transform="translate(396,287)"/>
<path d="M0 0 C2.10668827 4.21337655 1.2293798 9.74576533 1.25 14.375 C1.270625 15.52484375 1.29125 16.6746875 1.3125 17.859375 C1.31765625 18.96539062 1.3228125 20.07140625 1.328125 21.2109375 C1.34214355 22.73146729 1.34214355 22.73146729 1.35644531 24.28271484 C0.93718867 27.4788288 0.38464455 28.828663 -2 31 C-4.54370117 31.45410156 -4.54370117 31.45410156 -7.54296875 31.390625 C-8.61611328 31.37773437 -9.68925781 31.36484375 -10.79492188 31.3515625 C-11.91447266 31.31804687 -13.03402344 31.28453125 -14.1875 31.25 C-15.31865234 31.23195313 -16.44980469 31.21390625 -17.61523438 31.1953125 C-20.41100376 31.14812652 -23.20507972 31.08230595 -26 31 C-26 30.67 -26 30.34 -26 30 C-24.77023437 29.93941406 -23.54046875 29.87882812 -22.2734375 29.81640625 C-20.64061573 29.73194995 -19.00780373 29.64730453 -17.375 29.5625 C-16.16263672 29.50352539 -16.16263672 29.50352539 -14.92578125 29.44335938 C-10.54849135 29.21203918 -6.31452719 28.83079083 -2 28 C-2 27.34 -2 26.68 -2 26 C-1.34 26 -0.68 26 0 26 C-0.0721875 25.11699219 -0.144375 24.23398437 -0.21875 23.32421875 C-1.43530131 7.5935345 -1.43530131 7.5935345 -1 1 C-0.67 0.67 -0.34 0.34 0 0 Z " fill="#D9F5CA" transform="translate(466,246)"/>
<path d="M0 0 C0.92133224 -0.00570007 1.84266449 -0.01140015 2.79191589 -0.01727295 C4.74643805 -0.0267394 6.70097628 -0.03326343 8.65551758 -0.03710938 C11.6449785 -0.04680047 14.63374793 -0.07780224 17.62304688 -0.109375 C19.51952716 -0.11590619 21.41601237 -0.12115621 23.3125 -0.125 C24.20741653 -0.1373468 25.10233307 -0.1496936 26.02436829 -0.16241455 C32.26949094 -0.14003154 32.26949094 -0.14003154 35.4519043 1.72363281 C35.91508057 2.21186523 36.37825684 2.70009766 36.85546875 3.203125 C34.87546875 3.203125 32.89546875 3.203125 30.85546875 3.203125 C30.85546875 2.543125 30.85546875 1.883125 30.85546875 1.203125 C17.98546875 1.533125 5.11546875 1.863125 -8.14453125 2.203125 C-8.14453125 4.183125 -8.14453125 6.163125 -8.14453125 8.203125 C-10.14453125 6.203125 -10.14453125 6.203125 -10.33203125 3.640625 C-9.91042609 -1.84024211 -4.33073197 0.02042764 0 0 Z " fill="#9ED77E" transform="translate(515.14453125,241.796875)"/>
<path d="M0 0 C2.59197062 1.29598531 2.92963151 2.3344205 4 5 C4.58292008 8.79046948 4.69482918 12.60887014 4.875 16.4375 C4.9471875 17.47455078 5.019375 18.51160156 5.09375 19.58007812 C5.46780377 27.24325861 5.46780377 27.24325861 3.0078125 31.22265625 C2.01394531 32.10244141 2.01394531 32.10244141 1 33 C1.00523682 32.3201001 1.01047363 31.6402002 1.01586914 30.93969727 C1.03685071 27.81397451 1.04972687 24.68826665 1.0625 21.5625 C1.07087891 20.49322266 1.07925781 19.42394531 1.08789062 18.32226562 C1.10684631 12.12375772 0.82063259 6.1450519 0 0 Z " fill="#9CD57C" transform="translate(631,267)"/>
<path d="M0 0 C5.43396226 0.60377358 5.43396226 0.60377358 7.875 2.3125 C9 4 9 4 9 8 C6.8125 8.75 6.8125 8.75 4 9 C1.1875 7.0625 1.1875 7.0625 -1 5 C-0.67 3.35 -0.34 1.7 0 0 Z " fill="#5DAB5D" transform="translate(297,185)"/>
<path d="M0 0 C0 0.33 0 0.66 0 1 C-0.67546875 1.09796875 -1.3509375 1.1959375 -2.046875 1.296875 C-7.63258741 2.22411897 -7.63258741 2.22411897 -12.625 4.75 C-14.49656292 7.8125575 -14.56662857 9.45857143 -14 13 C-12.11586085 16.32808239 -12.11586085 16.32808239 -10 19 C-13.39527689 17.59505784 -15.30647023 16.30238306 -17 13 C-17.24492511 9.98273114 -17.17422028 7.01981824 -17 4 C-11.20200116 -0.0333905 -6.98629919 -0.50604984 0 0 Z " fill="#DCF6CA" transform="translate(378,253)"/>
<path d="M0 0 C0.33 0 0.66 0 1 0 C1 4.95 1 9.9 1 15 C8.47421521 15.3535813 8.47421521 15.3535813 15 12 C15.99 12 16.98 12 18 12 C16.25 15.875 16.25 15.875 14 17 C11.66906388 17.12283119 9.33413961 17.17554232 7 17.1875 C5.1128125 17.20876953 5.1128125 17.20876953 3.1875 17.23046875 C0 17 0 17 -2 15 C-2.43214516 9.59818554 -1.44486429 5.14732905 0 0 Z " fill="#94CF76" transform="translate(668,308)"/>
<path d="M0 0 C0.33 0 0.66 0 1 0 C1 7.26 1 14.52 1 22 C1.66 22 2.32 22 3 22 C4.75163456 25.77222089 5.22490027 28.666639 5.125 32.8125 C5.10695313 33.78832031 5.08890625 34.76414062 5.0703125 35.76953125 C5.03550781 36.87361328 5.03550781 36.87361328 5 38 C4.69191406 37.37867188 4.38382813 36.75734375 4.06640625 36.1171875 C3.3879818 34.77027889 2.68102157 33.43709688 1.9375 32.125 C-0.02251705 27.68229469 -0.1234281 22.95762612 -0.09765625 18.1640625 C-0.09443359 17.10058594 -0.09121094 16.03710938 -0.08789062 14.94140625 C-0.07951172 13.84699219 -0.07113281 12.75257813 -0.0625 11.625 C-0.05798828 10.50738281 -0.05347656 9.38976562 -0.04882812 8.23828125 C-0.03709244 5.49213196 -0.02067363 2.74609414 0 0 Z " fill="#A0D883" transform="translate(576,272)"/>
<path d="M0 0 C3.93748458 -0.02898816 7.87494179 -0.04679464 11.8125 -0.0625 C12.93205078 -0.07087891 14.05160156 -0.07925781 15.20507812 -0.08789062 C16.81479492 -0.09272461 16.81479492 -0.09272461 18.45703125 -0.09765625 C19.9416687 -0.10551147 19.9416687 -0.10551147 21.45629883 -0.11352539 C24 0 24 0 27 1 C27 1.99 27 2.98 27 4 C26.01 3.67 25.02 3.34 24 3 C22.15389468 2.91760831 20.30494836 2.89256641 18.45703125 2.90234375 C16.84731445 2.90717773 16.84731445 2.90717773 15.20507812 2.91210938 C14.08552734 2.92048828 12.96597656 2.92886719 11.8125 2.9375 C10.11577148 2.94426758 10.11577148 2.94426758 8.38476562 2.95117188 C5.58979073 2.96296502 2.7949218 2.9794235 0 3 C0 2.01 0 1.02 0 0 Z " fill="#A5D988" transform="translate(440,287)"/>
<path d="M0 0 C3.94401731 2.62934487 4.92960845 5.55208918 6 10 C6.98435028 17.86308378 5.43333056 23.9340831 2 31 C1 28 1 28 1.9296875 25.80078125 C3.29414275 22.23029068 3.21851437 18.94605836 3.125 15.1875 C3.11146484 14.14819336 3.11146484 14.14819336 3.09765625 13.08789062 C3.07426157 11.39177605 3.03839641 9.69584129 3 8 C2.34 8 1.68 8 1 8 C1.020625 7.236875 1.04125 6.47375 1.0625 5.6875 C1.12942841 2.89814214 1.12942841 2.89814214 0 0 Z " fill="#92D070" transform="translate(560,251)"/>
<path d="M0 0 C0.556875 0.268125 1.11375 0.53625 1.6875 0.8125 C0.5325 1.43125 -0.6225 2.05 -1.8125 2.6875 C-4.04924894 4.5334916 -5.1712103 5.91555099 -5.62792969 8.81494141 C-5.8620174 13.52370575 -5.64424331 18.21511952 -5.31005859 22.91479492 C-5.3125 24.8125 -5.3125 24.8125 -6.3125 27.8125 C-7.6325 27.4825 -8.9525 27.1525 -10.3125 26.8125 C-9.81492187 26.33683594 -9.31734375 25.86117188 -8.8046875 25.37109375 C-6.28201609 21.04557079 -7.2673387 16.32650983 -7.60546875 11.45507812 C-7.77235454 7.07614024 -7.70887417 5.36180054 -5.0546875 1.68359375 C-2.3125 -0.1875 -2.3125 -0.1875 0 0 Z " fill="#EFFCE6" transform="translate(694.3125,296.1875)"/>
<path d="M0 0 C2.56428515 -0.13559675 5.12135216 -0.23433188 7.6875 -0.3125 C8.40873047 -0.35439453 9.12996094 -0.39628906 9.87304688 -0.43945312 C14.08457688 -0.53560678 15.50525232 -0.41951892 18.8515625 2.41796875 C19.56054688 3.27003906 20.26953125 4.12210937 21 5 C21.886875 5.53625 22.77375 6.0725 23.6875 6.625 C27.33213784 10.36814157 27.41643089 14.94820767 28 20 C25.87274224 17.87274224 25.23388919 16.38347643 24.125 13.625 C22.57017975 10.02983942 21.16013594 7.44655686 18 5 C17.01 4.67 16.02 4.34 15 4 C15 3.34 15 2.68 15 2 C10.05 1.67 5.1 1.34 0 1 C0 0.67 0 0.34 0 0 Z " fill="#9ED680" transform="translate(241,252)"/>
<path d="M0 0 C0 0.33 0 0.66 0 1 C-0.845625 1.0515625 -1.69125 1.103125 -2.5625 1.15625 C-10.3399606 1.93399606 -14.46481396 3.24673543 -19.51171875 9.3203125 C-20.00285156 9.87460937 -20.49398437 10.42890625 -21 11 C-21.66 11 -22.32 11 -23 11 C-21.87058158 6.73330817 -19.75015827 3.938165 -16.41796875 1.16015625 C-11.34439539 -1.27417539 -5.48205576 -0.41058393 0 0 Z " fill="#E3F9D8" transform="translate(619,253)"/>
<path d="M0 0 C0.66 0 1.32 0 2 0 C2.33 9.24 2.66 18.48 3 28 C2.01 27.34 1.02 26.68 0 26 C-0.34057617 23.38623047 -0.34057617 23.38623047 -0.29296875 20.1171875 C-0.2784668 18.36728516 -0.2784668 18.36728516 -0.26367188 16.58203125 C-0.23853516 15.35871094 -0.21339844 14.13539063 -0.1875 12.875 C-0.17396484 11.64394531 -0.16042969 10.41289062 -0.14648438 9.14453125 C-0.11103543 6.09592157 -0.06162079 3.048175 0 0 Z " fill="#E2F7D7" transform="translate(436,246)"/>
<path d="M0 0 C0.556875 0.268125 1.11375 0.53625 1.6875 0.8125 C0.718125 1.4725 -0.25125 2.1325 -1.25 2.8125 C-5.86374739 7.26340925 -5.18109709 13.52406594 -5.3046875 19.5234375 C-5.30726563 20.60882813 -5.30984375 21.69421875 -5.3125 22.8125 C-5.6425 22.8125 -5.9725 22.8125 -6.3125 22.8125 C-6.61620743 19.91675486 -6.8812095 17.02588331 -7.125 14.125 C-7.21458984 13.30837891 -7.30417969 12.49175781 -7.39648438 11.65039062 C-7.73934668 7.19318064 -7.75296227 5.43129952 -5.07421875 1.66796875 C-2.3125 -0.1875 -2.3125 -0.1875 0 0 Z " fill="#DEFAD1" transform="translate(531.3125,296.1875)"/>
<path d="M0 0 C2.91365213 3.80041582 4.13131548 5.80791607 4.0625 10.625 C4.05347656 11.44226563 4.04445313 12.25953125 4.03515625 13.1015625 C4.02355469 13.72804688 4.01195312 14.35453125 4 15 C0.1584024 17.56780471 -3.8139175 17.22688882 -8.25 17.125 C-8.99507813 17.11597656 -9.74015625 17.10695313 -10.5078125 17.09765625 C-12.33868059 17.07418358 -14.16938238 17.03831525 -16 17 C-16 16.67 -16 16.34 -16 16 C-15.28714844 15.93941406 -14.57429688 15.87882812 -13.83984375 15.81640625 C-8.53039712 15.35191899 -3.266591 14.81924749 2 14 C1.2812193 6.95792295 1.2812193 6.95792295 0 0 Z " fill="#A6DB89" transform="translate(324,309)"/>
<path d="M0 0 C5.45666348 2.13058444 7.5141205 6.96667122 10 12 C10.875 15.625 10.875 15.625 11 18 C8.39189563 15.6325243 6.75668907 13.10468289 5 10.0625 C3.1583786 6.88282555 1.26024031 3.89929635 -1 1 C-0.67 0.67 -0.34 0.34 0 0 Z " fill="#D4F5CD" transform="translate(295,190)"/>
<path d="M0 0 C0.33 0 0.66 0 1 0 C1.19222407 4.09292917 1.3709507 8.18620091 1.53710938 12.28027344 C1.59555965 13.67333833 1.65771628 15.0662528 1.72363281 16.45898438 C1.81766015 18.45920227 1.89732059 20.46007932 1.9765625 22.4609375 C2.02893066 23.66540527 2.08129883 24.86987305 2.13525391 26.11083984 C2 29 2 29 0 31 C-0.99 31 -1.98 31 -3 31 C-2.505 29.515 -2.505 29.515 -2 28 C-1.34 28 -0.68 28 0 28 C0 18.76 0 9.52 0 0 Z " fill="#A1DA85" transform="translate(435,293)"/>
<path d="M0 0 C0.99 0.33 1.98 0.66 3 1 C2.67 1.66 2.34 2.32 2 3 C1.96318615 4.40323609 1.98632456 5.80836194 2.04296875 7.2109375 C2.06423828 8.04367187 2.08550781 8.87640625 2.10742188 9.734375 C2.16058259 11.48738209 2.22558899 13.24007206 2.30273438 14.9921875 C2.43695806 21.43492415 2.43695806 21.43492415 -0.01171875 24.6015625 C-0.66785156 25.06304687 -1.32398438 25.52453125 -2 26 C-2.33 25.01 -2.66 24.02 -3 23 C-2.01 22.67 -1.02 22.34 0 22 C0 14.74 0 7.48 0 0 Z " fill="#9ED685" transform="translate(523,298)"/>
<path d="M0 0 C3.26285983 3.17222483 6.19413485 6.42010308 9 10 C9.66 10.66 10.32 11.32 11 12 C9.375 12.8125 9.375 12.8125 7 13 C1.46831896 9.63760564 1.46831896 9.63760564 0.39453125 5.8828125 C0.125 3.6875 0.125 3.6875 0 0 Z " fill="#6BBA5A" transform="translate(281,200)"/>
<path d="M0 0 C0.33 0 0.66 0 1 0 C1.66 1.98 2.32 3.96 3 6 C8.28 6 13.56 6 19 6 C18.67 6.99 18.34 7.98 18 9 C12.39 9 6.78 9 1 9 C0.67 6.03 0.34 3.06 0 0 Z " fill="#E3F9D7" transform="translate(665,318)"/>
<path d="M0 0 C4.90632975 4.74806105 4.90632975 4.74806105 5.203125 8.71484375 C5.21859375 9.77832031 5.2340625 10.84179688 5.25 11.9375 C5.27578125 12.99839844 5.3015625 14.05929687 5.328125 15.15234375 C5 18 5 18 2 21 C2 16.05 2 11.1 2 6 C1.34 5.67 0.68 5.34 0 5 C0 3.35 0 1.7 0 0 Z " fill="#DAF5CA" transform="translate(544,256)"/>
<path d="M0 0 C0.33 0 0.66 0 1 0 C1.1953125 2.01822917 1.390625 4.03645833 1.5859375 6.0546875 C1.86374749 8.22668245 1.86374749 8.22668245 4 10 C6.52475716 10.19893799 8.91514749 10.27847435 11.4375 10.25 C12.11876953 10.25773437 12.80003906 10.26546875 13.50195312 10.2734375 C17.21409442 10.25889434 18.83589372 10.10940418 22 8 C21.34 9.65 20.68 11.3 20 13 C17.22829605 12.88613541 14.45821954 12.75939222 11.6875 12.625 C10.90181641 12.5940625 10.11613281 12.563125 9.30664062 12.53125 C8.54931641 12.49257813 7.79199219 12.45390625 7.01171875 12.4140625 C5.96697388 12.36693115 5.96697388 12.36693115 4.90112305 12.31884766 C3 12 3 12 0 10 C-0.29296875 7.6171875 -0.29296875 7.6171875 -0.1875 4.875 C-0.16042969 3.96492188 -0.13335937 3.05484375 -0.10546875 2.1171875 C-0.07066406 1.41851562 -0.03585937 0.71984375 0 0 Z " fill="#DDF6D1" transform="translate(465,314)"/>
<path d="M0 0 C0.66 0.33 1.32 0.66 2 1 C1.67 1.66 1.34 2.32 1 3 C0.91691362 4.37548156 0.89263984 5.75485796 0.90234375 7.1328125 C0.90556641 7.93847656 0.90878906 8.74414062 0.91210938 9.57421875 C0.92048828 10.41597656 0.92886719 11.25773437 0.9375 12.125 C0.94426758 13.39923828 0.94426758 13.39923828 0.95117188 14.69921875 C0.96297126 16.79950909 0.98090694 18.8997633 1 21 C0.34 21.33 -0.32 21.66 -1 22 C-1.33 15.07 -1.66 8.14 -2 1 C-1.34 0.67 -0.68 0.34 0 0 Z " fill="#A7DB8C" transform="translate(687,298)"/>
<path d="M0 0 C-0.75 1.9375 -0.75 1.9375 -2 4 C-5.39178458 5.29731853 -8.55275511 4.98152999 -12.125 4.6875 C-13.17945313 4.60886719 -14.23390625 4.53023438 -15.3203125 4.44921875 C-18 4 -18 4 -20 2 C-18.86820313 1.93941406 -17.73640625 1.87882812 -16.5703125 1.81640625 C-15.08852855 1.73200083 -13.6067584 1.64735283 -12.125 1.5625 C-11.37863281 1.52318359 -10.63226563 1.48386719 -9.86328125 1.44335938 C-6.43744287 1.24274722 -3.2500626 0 0 0 Z " fill="#A6DD87" transform="translate(258,312)"/>
<path d="M0 0 C1.4540625 0.0309375 1.4540625 0.0309375 2.9375 0.0625 C2.6075 0.7225 2.2775 1.3825 1.9375 2.0625 C0.6175 2.0625 -0.7025 2.0625 -2.0625 2.0625 C-1.90652344 2.70316406 -1.75054687 3.34382812 -1.58984375 4.00390625 C-0.3676805 9.43484363 0.12216226 13.61305361 -1.0625 19.0625 C-1.3925 19.0625 -1.7225 19.0625 -2.0625 19.0625 C-3.46305535 12.96008025 -4.40451376 7.33275224 -4.0625 1.0625 C-3.0625 0.0625 -3.0625 0.0625 0 0 Z " fill="#8DD06B" transform="translate(222.0625,242.9375)"/>
<path d="M0 0 C0.33 0 0.66 0 1 0 C1.05851976 4.16660676 1.0937706 8.33310637 1.125 12.5 C1.14175781 13.67304688 1.15851563 14.84609375 1.17578125 16.0546875 C1.21148985 22.41081848 0.90984993 27.92457188 -1 34 C-1.33 34 -1.66 34 -2 34 C-2.0270043 32.54176788 -2.04639787 31.08339325 -2.0625 29.625 C-2.07410156 28.81289063 -2.08570313 28.00078125 -2.09765625 27.1640625 C-2 25 -2 25 -1 23 C-0.84733388 21.26131256 -0.75067404 19.51752499 -0.68359375 17.7734375 C-0.64169922 16.7421875 -0.59980469 15.7109375 -0.55664062 14.6484375 C-0.51732422 13.56820313 -0.47800781 12.48796875 -0.4375 11.375 C-0.39431641 10.28703125 -0.35113281 9.1990625 -0.30664062 8.078125 C-0.2003547 5.3855483 -0.09831943 2.69287747 0 0 Z " fill="#97D278" transform="translate(285,270)"/>
<path d="M0 0 C0.66 0 1.32 0 2 0 C2.33 1.32 2.66 2.64 3 4 C3.66 4 4.32 4 5 4 C4.96683318 6.56590557 4.89953481 9.12332066 4.8125 11.6875 C4.80669922 12.40873047 4.80089844 13.12996094 4.79492188 13.87304688 C4.61947196 18.14232808 4.32567086 19.61448151 1.44921875 23.01953125 C0.64097656 23.67308594 -0.16726563 24.32664062 -1 25 C-1.99 24.67 -2.98 24.34 -4 24 C-3.34 24 -2.68 24 -2 24 C-1.71125 23.401875 -1.4225 22.80375 -1.125 22.1875 C0 20 0 20 2 17 C2.31825732 14.19726783 2.31825732 14.19726783 2.25 11.125 C2.25515625 10.09632813 2.2603125 9.06765625 2.265625 8.0078125 C1.99679588 4.963718 1.28164154 2.7565465 0 0 Z " fill="#97D275" transform="translate(546,257)"/>
<path d="M0 0 C2.60909589 2.60909589 2.26108967 4.46726316 2.2734375 8.0234375 C2.26183594 9.18746094 2.26183594 9.18746094 2.25 10.375 C2.25773438 11.14328125 2.26546875 11.9115625 2.2734375 12.703125 C2.24791993 20.0777041 2.24791993 20.0777041 0 23 C-0.99 23.33 -1.98 23.66 -3 24 C-2.7834375 23.44054687 -2.566875 22.88109375 -2.34375 22.3046875 C0.25702254 14.81542583 0.30619227 7.87027546 0 0 Z " fill="#E6FAD9" transform="translate(565,258)"/>
<path d="M0 0 C4.29 0 8.58 0 13 0 C13 0.66 13 1.32 13 2 C14.32 2.33 15.64 2.66 17 3 C17 3.66 17 4.32 17 5 C16.31550781 4.68289062 15.63101563 4.36578125 14.92578125 4.0390625 C11.60249621 2.85883043 8.70245465 2.58802755 5.1875 2.375 C4.02605469 2.30023438 2.86460937 2.22546875 1.66796875 2.1484375 C0.78753906 2.09945312 -0.09289062 2.05046875 -1 2 C-0.67 1.34 -0.34 0.68 0 0 Z " fill="#9DD47F" transform="translate(607,251)"/>
<path d="M0 0 C0.66 0 1.32 0 2 0 C2 1.98 2 3.96 2 6 C2.66 6 3.32 6 4 6 C4 7.65 4 9.3 4 11 C2.02 11.99 2.02 11.99 0 13 C0 8.71 0 4.42 0 0 Z " fill="#49A840" transform="translate(307,197)"/>
<path d="M0 0 C0 0.33 0 0.66 0 1 C-0.83144531 1.20496094 -1.66289063 1.40992188 -2.51953125 1.62109375 C-4.14955078 2.02521484 -4.14955078 2.02521484 -5.8125 2.4375 C-7.43091797 2.83775391 -7.43091797 2.83775391 -9.08203125 3.24609375 C-11.0740843 3.76077412 -13.04811524 4.34937175 -15 5 C-15 3.68 -15 2.36 -15 1 C-10.05183286 -1.80396138 -5.38317715 -0.77350507 0 0 Z " fill="#94D570" transform="translate(704,293)"/>
<path d="M0 0 C2.28748482 3.43122724 2.32535381 4.94887104 2.375 9 C2.40335938 10.051875 2.43171875 11.10375 2.4609375 12.1875 C2 15 2 15 -2 18 C-1.34 12.06 -0.68 6.12 0 0 Z " fill="#E3FAD7" transform="translate(709,261)"/>
<path d="M0 0 C0.91922932 2.75768797 0.96572948 4.66256337 0.8125 7.625 C0.70870051 12.22677725 2.32414429 15.76901418 4.22265625 19.8984375 C4.47917969 20.59195312 4.73570312 21.28546875 5 22 C4.67 22.66 4.34 23.32 4 24 C-0.87275652 17.10853007 -1.8790373 11.36341201 -1 3 C-0.67 2.01 -0.34 1.02 0 0 Z " fill="#9FD482" transform="translate(346,255)"/>
<path d="M0 0 C0.66 0.33 1.32 0.66 2 1 C2.5326514 7.258654 0.81849506 11.45108785 -2 17 C-2.33 17 -2.66 17 -3 17 C-3 14.69 -3 12.38 -3 10 C-2.34 10 -1.68 10 -1 10 C-0.67 6.7 -0.34 3.4 0 0 Z " fill="#9FD67F" transform="translate(326,244)"/>
<path d="M0 0 C1.05445313 -0.00773438 2.10890625 -0.01546875 3.1953125 -0.0234375 C4.07960938 0.10804688 4.96390625 0.23953125 5.875 0.375 C6.535 1.365 7.195 2.355 7.875 3.375 C1.875 3.375 -4.125 3.375 -10.125 3.375 C-6.79166758 0.33152257 -4.46235379 -0.03289204 0 0 Z " fill="#B3E19D" transform="translate(477.125,241.625)"/>
<path d="M0 0 C1.74965358 -0.05429959 3.49979787 -0.09292823 5.25 -0.125 C6.22453125 -0.14820313 7.1990625 -0.17140625 8.203125 -0.1953125 C11.0196498 0.00137219 12.60949036 0.55431084 15 2 C12.04335481 3.4783226 9.25770263 3.06032783 6 3 C6.33 3.66 6.66 4.32 7 5 C2.25 3.125 2.25 3.125 0 2 C0 1.34 0 0.68 0 0 Z " fill="#92C98F" transform="translate(262,178)"/>
<path d="M0 0 C1.75994274 3.16789693 2.24872886 5.24364431 3 9 C6.96 9.33 10.92 9.66 15 10 C15 10.33 15 10.66 15 11 C12.87527424 11.05386629 10.75016348 11.09273071 8.625 11.125 C6.84996094 11.15980469 6.84996094 11.15980469 5.0390625 11.1953125 C2 11 2 11 0 9 C-0.1953125 6.8359375 -0.1953125 6.8359375 -0.125 4.375 C-0.10695313 3.55773437 -0.08890625 2.74046875 -0.0703125 1.8984375 C-0.04710937 1.27195312 -0.02390625 0.64546875 0 0 Z " fill="#91CF74" transform="translate(417,314)"/>
<path d="M0 0 C0.33 0 0.66 0 1 0 C1.55511062 3.66373009 0.79548093 5.74454452 -1.1875 8.75 C-3.08812527 11.253395 -3.73895781 11.91298594 -6.8125 12.9375 C-7.8953125 12.9684375 -7.8953125 12.9684375 -9 13 C-8.34 12.01 -7.68 11.02 -7 10 C-6.34 10 -5.68 10 -5 10 C-4.731875 9.278125 -4.46375 8.55625 -4.1875 7.8125 C-3.00645167 5.01528026 -1.66638302 2.53580025 0 0 Z " fill="#E3F9D8" transform="translate(401,309)"/>
<path d="M0 0 C3.4375 1.3125 3.4375 1.3125 7 3 C7.33 3.99 7.66 4.98 8 6 C9.33076989 6.34342449 10.66431979 6.67619874 12 7 C12.99 8.485 12.99 8.485 14 10 C9.60469719 9.51163302 7.9781 8.17023548 5 5 C4.278125 4.649375 3.55625 4.29875 2.8125 3.9375 C1 3 1 3 0 0 Z " fill="#9BD677" transform="translate(266,246)"/>
<path d="M0 0 C0.825 0.144375 1.65 0.28875 2.5 0.4375 C5.09634163 0.85476919 7.63903179 1.17068573 10.25 1.4375 C14 2 14 2 16 4 C15.67 4.99 15.34 5.98 15 7 C7.5 4 7.5 4 0 1 C0 0.67 0 0.34 0 0 Z " fill="#7FBC78" transform="translate(296,216)"/>
<path d="M0 0 C2.79872437 2.52788007 4.45773019 4.20411134 5 8 C3.35 8.33 1.7 8.66 0 9 C0 8.34 0 7.68 0 7 C-0.66 7 -1.32 7 -2 7 C-2 6.34 -2 5.68 -2 5 C-1.34 5 -0.68 5 0 5 C0 3.35 0 1.7 0 0 Z " fill="#64B85A" transform="translate(298,197)"/>
<path d="M0 0 C0.33 0 0.66 0 1 0 C1 2.64 1 5.28 1 8 C1.66 8 2.32 8 3 8 C3 8.99 3 9.98 3 11 C3.969375 11.268125 4.93875 11.53625 5.9375 11.8125 C6.948125 12.204375 7.95875 12.59625 9 13 C9.33 13.99 9.66 14.98 10 16 C7.06778769 15.37166879 4.54452487 14.61153242 2 13 C0.12491082 9.99589586 -0.22823989 7.76015622 -0.125 4.25 C-0.10695313 3.45078125 -0.08890625 2.6515625 -0.0703125 1.828125 C-0.04710937 1.22484375 -0.02390625 0.6215625 0 0 Z " fill="#ABDB8F" transform="translate(344,308)"/>
<path d="M0 0 C0.66 0.99 1.32 1.98 2 3 C1.34 3 0.68 3 0 3 C-0.04898437 3.69867188 -0.09796875 4.39734375 -0.1484375 5.1171875 C-0.22320312 6.02726562 -0.29796875 6.93734375 -0.375 7.875 C-0.47941406 9.23238281 -0.47941406 9.23238281 -0.5859375 10.6171875 C-1 13 -1 13 -3 15 C-4 14 -4 14 -4.3125 10.875 C-3.92867631 6.11558628 -2.58022596 3.95097099 0 0 Z " fill="#A3D785" transform="translate(306,308)"/>
<path d="M0 0 C0.89203125 0.01804688 1.7840625 0.03609375 2.703125 0.0546875 C3.71632813 0.08949219 3.71632813 0.08949219 4.75 0.125 C4.75 0.455 4.75 0.785 4.75 1.125 C4.08613281 1.22296875 3.42226563 1.3209375 2.73828125 1.421875 C-2.62285726 2.32974663 -6.27036413 3.14536413 -10.25 7.125 C-10 4.75 -10 4.75 -9.25 2.125 C-6.16872876 0.0521448 -3.65291922 -0.09612945 0 0 Z " fill="#E9FBDE" transform="translate(373.25,252.875)"/>
<path d="M0 0 C0 0.99 0 1.98 0 3 C0.556875 3.061875 1.11375 3.12375 1.6875 3.1875 C4.94987173 4.33373872 6.68667874 6.49390197 9 9 C8.01 9.495 8.01 9.495 7 10 C6.34 9.01 5.68 8.02 5 7 C3.18916157 5.85323113 3.18916157 5.85323113 1.125 4.9375 C0.10792969 4.45603516 0.10792969 4.45603516 -0.9296875 3.96484375 C-1.61289062 3.64644531 -2.29609375 3.32804688 -3 3 C-4.33517621 2.33703188 -5.66906255 1.67143706 -7 1 C-2.25 0 -2.25 0 0 0 Z " fill="#DDF6CF" transform="translate(267,242)"/>
<path d="M0 0 C0.33 0 0.66 0 1 0 C1 3.96 1 7.92 1 12 C1.66 12 2.32 12 3 12 C2.25 13.9375 2.25 13.9375 1 16 C-1.125 16.75 -1.125 16.75 -3 17 C-2.68289063 16.47921875 -2.36578125 15.9584375 -2.0390625 15.421875 C-0.71079489 12.32591291 -0.57635753 9.60595879 -0.375 6.25 C-0.30023438 5.07953125 -0.22546875 3.9090625 -0.1484375 2.703125 C-0.09945313 1.81109375 -0.05046875 0.9190625 0 0 Z " fill="#A1D984" transform="translate(467,260)"/>
<path d="M0 0 C0.33 0 0.66 0 1 0 C1.33 5.28 1.66 10.56 2 16 C0.02 16.99 0.02 16.99 -2 18 C-1.34 12.06 -0.68 6.12 0 0 Z " fill="#E1F6D2" transform="translate(728,261)"/>
<path d="M0 0 C2.43816585 -0.0809723 4.87364384 -0.14046972 7.3125 -0.1875 C8.34793945 -0.22520508 8.34793945 -0.22520508 9.40429688 -0.26367188 C14.5175964 -0.33777767 14.5175964 -0.33777767 16.98046875 1.38671875 C18 3 18 3 18 5 C17.34 5 16.68 5 16 5 C16 4.34 16 3.68 16 3 C10.72 2.34 5.44 1.68 0 1 C0 0.67 0 0.34 0 0 Z " fill="#9AD379" transform="translate(368,252)"/>
<path d="M0 0 C3.92518324 2.61678883 4.97513818 5.551815 6 10 C6.23232559 13.6833286 6.18287353 17.31543693 6 21 C5.67 21 5.34 21 5 21 C4.67 16.71 4.34 12.42 4 8 C3.01 8 2.02 8 1 8 C1.020625 7.236875 1.04125 6.47375 1.0625 5.6875 C1.12942841 2.89814214 1.12942841 2.89814214 0 0 Z " fill="#A8DB8B" transform="translate(560,251)"/>
<path d="M0 0 C2.171875 0.37109375 2.171875 0.37109375 4 1 C3.51789062 1.38671875 3.03578125 1.7734375 2.5390625 2.171875 C1.59160156 2.95304687 1.59160156 2.95304687 0.625 3.75 C-0.31472656 4.51570313 -0.31472656 4.51570313 -1.2734375 5.296875 C-3.08312318 7.08199481 -4.00117455 8.67949644 -5 11 C-5.47877076 6.88257146 -5.32165374 5.41993683 -2.75 2.0625 C-1.8425 1.381875 -0.935 0.70125 0 0 Z " fill="#E4F9D8" transform="translate(692,296)"/>
<path d="M0 0 C0.33 0.66 0.66 1.32 1 2 C-2.2870757 5.81300782 -5.39727838 7.22972246 -10 9 C-9.67 8.01 -9.34 7.02 -9 6 C-7.35 5.67 -5.7 5.34 -4 5 C-3.8453125 4.0409375 -3.8453125 4.0409375 -3.6875 3.0625 C-3.460625 2.381875 -3.23375 1.70125 -3 1 C-2.01 0.67 -1.02 0.34 0 0 Z " fill="#A2D887" transform="translate(723,282)"/>
<path d="M0 0 C8.415 1.485 8.415 1.485 17 3 C17 3.33 17 3.66 17 4 C15.27119018 4.05449838 13.54187288 4.09301688 11.8125 4.125 C10.84957031 4.14820313 9.88664063 4.17140625 8.89453125 4.1953125 C5.8364022 3.98896101 3.72481396 3.38418613 1 2 C0.67 1.34 0.34 0.68 0 0 Z " fill="#D3F2C5" transform="translate(602,312)"/>
<path d="M0 0 C0.66 0.33 1.32 0.66 2 1 C-3.3125 8.4375 -3.3125 8.4375 -8 10 C-8 9.34 -8 8.68 -8 8 C-7.34 8 -6.68 8 -6 8 C-5.7525 7.4225 -5.505 6.845 -5.25 6.25 C-3.83316683 3.6997003 -2.12372463 1.98214299 0 0 Z " fill="#A5DA89" transform="translate(590,247)"/>
<path d="M0 0 C0.33 0.99 0.66 1.98 1 3 C0.54625 3.7425 0.0925 4.485 -0.375 5.25 C-2.30623946 8.51825139 -2.63274633 11.25401257 -3 15 C-3.33 15 -3.66 15 -4 15 C-4.29268781 9.34136895 -4.03522952 5.97777642 -1 1 C-0.67 0.67 -0.34 0.34 0 0 Z " fill="#EBFDE1" transform="translate(305,307)"/>
<path d="M0 0 C0.66 0 1.32 0 2 0 C2.49230769 6.4 2.49230769 6.4 0 9.4375 C-0.99 10.2109375 -0.99 10.2109375 -2 11 C-1.34 7.37 -0.68 3.74 0 0 Z " fill="#DEF7D1" transform="translate(630,296)"/>
<path d="M0 0 C2.125 0.9375 2.125 0.9375 4 2 C4 2.66 4 3.32 4 4 C-0.75 5.125 -0.75 5.125 -3 4 C-2.67 3.01 -2.34 2.02 -2 1 C-1.34 0.67 -0.68 0.34 0 0 Z " fill="#49A241" transform="translate(302,189)"/>
<path d="M0 0 C0.33 0 0.66 0 1 0 C1.23268915 6.28260706 0.40454548 11.88019467 -1 18 C-1.33 18 -1.66 18 -2 18 C-2.20852314 11.59370576 -2.1583195 6.07027358 0 0 Z " fill="#CFF1BE" transform="translate(418,304)"/>
<path d="M0 0 C0.99 0.33 1.98 0.66 3 1 C3 6.61 3 12.22 3 18 C2.67 18 2.34 18 2 18 C1.93941406 17.03578125 1.87882812 16.0715625 1.81640625 15.078125 C1.73261719 13.81484375 1.64882813 12.5515625 1.5625 11.25 C1.48128906 9.99703125 1.40007812 8.7440625 1.31640625 7.453125 C1.07484478 4.81682447 0.75716066 2.51962706 0 0 Z " fill="#E2FCD6" transform="translate(464,290)"/>
<path d="M0 0 C4.68520915 1.21815438 8.70543612 2.69559987 13 5 C10.22043508 6.38978246 8.87953614 5.61356169 5.9375 4.75 C5.03902344 4.49734375 4.14054687 4.2446875 3.21484375 3.984375 C2.48394531 3.65953125 1.75304687 3.3346875 1 3 C0.67 2.01 0.34 1.02 0 0 Z " fill="#E1F6D2" transform="translate(360,286)"/>
<path d="M0 0 C2.05078125 0.03255208 4.1015625 0.06510417 6.15234375 0.09765625 C3.50495459 1.55828475 2.25786041 2.09765625 -0.84765625 2.09765625 C-0.84765625 4.07765625 -0.84765625 6.05765625 -0.84765625 8.09765625 C-2.84765625 6.09765625 -2.84765625 6.09765625 -3.03515625 3.53515625 C-2.77450145 0.14664384 -2.77450145 0.14664384 0 0 Z " fill="#A7D88C" transform="translate(507.84765625,241.90234375)"/>
<path d="M0 0 C7.38461538 0.49230769 7.38461538 0.49230769 10.5 3.0625 C10.995 3.701875 11.49 4.34125 12 5 C11.67 5.99 11.34 6.98 11 8 C11 7.34 11 6.68 11 6 C9.948125 5.5978125 9.948125 5.5978125 8.875 5.1875 C5.8350176 3.9318551 2.9272226 2.49764877 0 1 C0 0.67 0 0.34 0 0 Z " fill="#E3F9D7" transform="translate(549,243)"/>
<path d="M0 0 C1.258125 -0.04125 2.51625 -0.0825 3.8125 -0.125 C4.52019531 -0.14820313 5.22789062 -0.17140625 5.95703125 -0.1953125 C8 0 8 0 11 2 C8.875 3.1875 8.875 3.1875 6 4 C2.6875 2.625 2.6875 2.625 0 1 C0 0.67 0 0.34 0 0 Z " fill="#83BD7F" transform="translate(277,176)"/>
<path d="M0 0 C0.33 0 0.66 0 1 0 C1.21755666 5.4389165 1.10428384 9.87080814 -1 15 C-1.33 15 -1.66 15 -2 15 C-2.22577402 9.5814234 -1.46670113 5.22512279 0 0 Z " fill="#AADB8F" transform="translate(668,308)"/>
<path d="M0 0 C0.33 0 0.66 0 1 0 C1.375 2.1875 1.375 2.1875 1 5 C-0.83961648 6.99022836 -2.79186148 8.38989899 -5 10 C-5.66 9.67 -6.32 9.34 -7 9 C-6.57847656 8.51789063 -6.15695312 8.03578125 -5.72265625 7.5390625 C-5.17480469 6.90742188 -4.62695312 6.27578125 -4.0625 5.625 C-3.51722656 4.99851562 -2.97195313 4.37203125 -2.41015625 3.7265625 C-0.93041376 2.04367666 -0.93041376 2.04367666 0 0 Z " fill="#9BD57E" transform="translate(266,302)"/>
<path d="M0 0 C0 0.99 0 1.98 0 3 C-2.3125 5.25 -2.3125 5.25 -5 7 C-5.99 6.67 -6.98 6.34 -8 6 C-3.38461538 0 -3.38461538 0 0 0 Z " fill="#94D272" transform="translate(596,245)"/>
<path d="M0 0 C0.33 0 0.66 0 1 0 C1 4.29 1 8.58 1 13 C-0.98 13.99 -0.98 13.99 -3 15 C-2.67 13.68 -2.34 12.36 -2 11 C-1.34 11 -0.68 11 0 11 C0 7.37 0 3.74 0 0 Z " fill="#92D173" transform="translate(523,309)"/>
<path d="M0 0 C1.32 0.33 2.64 0.66 4 1 C3.67 1.33 3.34 1.66 3 2 C2.76807135 3.51469448 2.58784762 5.03754562 2.4375 6.5625 C2.35371094 7.38878906 2.26992188 8.21507812 2.18359375 9.06640625 C2.12300781 9.70449219 2.06242188 10.34257812 2 11 C-0.12999997 7.20960634 -0.16702456 4.34263862 0 0 Z " fill="#94CF74" transform="translate(668,243)"/>
<path d="M0 0 C2.31 0 4.62 0 7 0 C6.34 2.31 5.68 4.62 5 7 C1.125 2.25 1.125 2.25 0 0 Z " fill="#5CAE55" transform="translate(299,193)"/>
<path d="M0 0 C2.18975773 3.28463659 2.99806563 6.20696275 4 10 C3.34 10 2.68 10 2 10 C2 9.01 2 8.02 2 7 C1.01 7 0.02 7 -1 7 C-0.67 4.69 -0.34 2.38 0 0 Z " fill="#A7DA84" transform="translate(594,298)"/>
<path d="M0 0 C0.66 0.33 1.32 0.66 2 1 C1.34 3.64 0.68 6.28 0 9 C-0.66 9 -1.32 9 -2 9 C-2 6.36 -2 3.72 -2 1 C-1.34 0.67 -0.68 0.34 0 0 Z " fill="#9ED681" transform="translate(687,298)"/>
<path d="M0 0 C0.99 0.33 1.98 0.66 3 1 C4.6691198 4.61642624 3.65669883 8.20574012 3 12 C2.67 12 2.34 12 2 12 C1.34 8.04 0.68 4.08 0 0 Z " fill="#95D076" transform="translate(218,250)"/>
<path d="M0 0 C1.32 0.33 2.64 0.66 4 1 C0.535 3.97 0.535 3.97 -3 7 C-3 6.01 -3 5.02 -3 4 C-2.34 4 -1.68 4 -1 4 C-0.67 2.68 -0.34 1.36 0 0 Z " fill="#ECFAE2" transform="translate(529,296)"/>
<path d="M0 0 C0.33 0 0.66 0 1 0 C1.125 6.625 1.125 6.625 0 10 C-0.66 10 -1.32 10 -2 10 C-1.125 2.25 -1.125 2.25 0 0 Z " fill="#A6D88C" transform="translate(579,262)"/>
<path d="M0 0 C3.00617269 3.00617269 2.59585316 5.82381598 3 10 C2.34 10 1.68 10 1 10 C-0.1577506 6.52674819 -0.06866652 3.63932552 0 0 Z " fill="#DAF7CE" transform="translate(629,263)"/>
<path d="M0 0 C2.83374881 3.20336822 3.5205537 5.78087253 4 10 C1.2027092 7.93243723 0.97307727 6.85559629 0.3125 3.3125 C0.209375 2.219375 0.10625 1.12625 0 0 Z " fill="#BCECB4" transform="translate(302,198)"/>
<path d="M0 0 C1.65 0.33 3.3 0.66 5 1 C5 1.66 5 2.32 5 3 C3.125 4.0625 3.125 4.0625 1 5 C0.34 4.67 -0.32 4.34 -1 4 C-0.67 2.68 -0.34 1.36 0 0 Z " fill="#45A342" transform="translate(297,185)"/>
<path d="M0 0 C0.6875 1.8125 0.6875 1.8125 1 4 C-0.4375 5.75 -0.4375 5.75 -2 7 C-2.99 6.67 -3.98 6.34 -5 6 C-3.35 4.02 -1.7 2.04 0 0 Z " fill="#9CD87E" transform="translate(629,306)"/>
<path d="M0 0 C1.875 0.5625 1.875 0.5625 4 2 C5.25 5.625 5.25 5.625 6 9 C2.91910327 6.22719294 1.31224548 3.93673644 0 0 Z " fill="#EBFEDB" transform="translate(596,303)"/>
<path d="M0 0 C0 3.51716303 -0.82445585 4.37121748 -3 7 C-3.99 6.67 -4.98 6.34 -6 6 C-4 4 -2 2 0 0 Z " fill="#E5F9D8" transform="translate(277,314)"/>
<path d="M0 0 C0.99 0 1.98 0 3 0 C3.33 1.98 3.66 3.96 4 6 C3.01 5.67 2.02 5.34 1 5 C0.67 3.35 0.34 1.7 0 0 Z " fill="#E1F8D1" transform="translate(724,251)"/>
<path d="M0 0 C0.33 0.99 0.66 1.98 1 3 C-0.3125 5.1875 -0.3125 5.1875 -2 7 C-2.66 7 -3.32 7 -4 7 C-2.92598892 4.08482708 -2.22189824 2.22189824 0 0 Z " fill="#A7D78B" transform="translate(351,248)"/>
<path d="M0 0 C1.98 0 3.96 0 6 0 C6.33 0.66 6.66 1.32 7 2 C5.35 1.67 3.7 1.34 2 1 C1.34 2.32 0.68 3.64 0 5 C-0.66 4.01 -1.32 3.02 -2 2 C-1.34 2 -0.68 2 0 2 C0 1.34 0 0.68 0 0 Z " fill="#62B154" transform="translate(295,184)"/>
</svg>