<svg xmlns="http://www.w3.org/2000/svg" width="1024" height="535" viewBox="217 160 520 230" version="1.1"><path d="M 280.919 178.501 C 283.899 179.895, 288.284 182.631, 290.662 184.579 C 295.823 188.809, 303.450 199.303, 304.412 203.500 C 304.936 205.785, 303.972 204.831, 300.369 199.500 C 297.766 195.650, 294.031 191.031, 292.068 189.236 C 286.373 184.026, 275.226 178.921, 268.142 178.279 C 261.476 177.675, 259.964 178.914, 264.883 180.952 C 268.903 182.617, 271.795 186.249, 275.203 193.917 C 276.812 197.537, 278.747 201.850, 279.502 203.500 C 282.281 209.575, 288.109 213.907, 298.259 217.441 C 308.534 221.019, 312.573 223.382, 313.594 226.413 C 314.157 228.085, 314.349 228.127, 315.121 226.748 C 317.096 223.219, 312.589 201.996, 307.922 192.847 C 303.252 183.693, 292.361 176.866, 281.500 176.286 L 275.500 175.965 280.919 178.501 M 365 241.869 C 355.192 244.011, 346.601 251.808, 345.428 259.632 C 344.218 267.698, 346.398 275.307, 351.331 280.240 C 352.607 281.516, 356.969 284.122, 361.023 286.031 C 379.105 294.542, 382.394 296.488, 384.336 299.824 C 386.059 302.785, 386.130 303.577, 384.980 307.061 C 383.202 312.448, 380.419 314, 372.543 314 C 366.713 314, 365.098 313.512, 357.431 309.435 C 349.227 305.072, 348.740 304.940, 346.424 306.458 C 344.512 307.711, 344 308.911, 344 312.141 C 344 315.546, 344.638 316.873, 347.786 320.022 C 352.735 324.970, 357.748 326.268, 372.058 326.304 C 382.941 326.332, 383.928 326.164, 388.929 323.442 C 402.883 315.848, 406.129 299.244, 395.926 287.653 C 392.278 283.509, 390.521 282.478, 372.738 274.048 C 362.707 269.292, 360.451 266.767, 361.340 261.290 C 362.319 255.259, 364.933 253.491, 372.780 253.554 C 378.548 253.600, 380.487 254.132, 386.461 257.304 C 390.289 259.337, 393.744 261, 394.139 261 C 396.042 261, 398 257.483, 398 254.063 C 398 249.306, 395.288 245.733, 390.104 243.658 C 385.569 241.844, 370.149 240.745, 365 241.869 M 604.500 241.896 C 600.182 242.720, 592.903 245.605, 592.035 246.837 C 591.741 247.255, 590.039 248.617, 588.254 249.864 C 580.970 254.951, 575.993 269.075, 576.012 284.608 C 576.025 295.580, 577.527 302.584, 581.494 310.171 C 584.697 316.296, 587.116 318.811, 593.274 322.421 C 611.918 333.346, 636.432 327.158, 645.307 309.284 C 649.344 301.157, 650.503 295.242, 650.458 283 C 650.384 262.974, 644.442 251.458, 630.713 244.736 C 624.876 241.878, 611.942 240.477, 604.500 241.896 M 218.448 243.415 C 216.561 244.794, 216.556 244.998, 218.265 251.665 C 220.810 261.593, 220.828 306.335, 218.291 316.233 C 216.900 321.663, 216.811 323.211, 217.831 324.233 C 219.626 326.031, 250.635 326.605, 258 324.977 C 271.168 322.065, 280.032 314.190, 284.061 301.822 C 287.404 291.560, 287.369 274.363, 283.987 265.500 C 279.277 253.159, 272.975 247.325, 260.148 243.432 C 253.544 241.428, 221.183 241.415, 218.448 243.415 M 304.223 243.557 C 300.867 245.907, 301.629 253.455, 305.500 256.212 C 306.107 256.645, 306.617 266.752, 306.799 281.920 C 307.097 306.882, 307.094 306.923, 304.549 312.487 C 301.478 319.201, 301.381 321.130, 303.994 323.495 C 306.553 325.811, 319.140 326.769, 324.363 325.045 C 327.614 323.972, 328 323.478, 328 320.383 C 328 318.478, 327.100 315.156, 326 313 C 324.157 309.388, 324.002 307.131, 324.022 284.290 C 324.042 261.756, 324.224 259.103, 326.022 255.141 C 330.585 245.084, 327.998 242, 315 242 C 308.876 242, 305.814 242.442, 304.223 243.557 M 506.535 243.351 C 504.885 244.557, 504.811 245.193, 505.844 249.294 C 507.293 255.048, 507.337 295.760, 505.905 305.500 C 503.798 319.835, 503.657 323.169, 505.117 324.094 C 507.603 325.668, 519.686 325.171, 521.435 323.422 C 524.737 320.121, 525.259 317.802, 524.582 309.458 C 523.918 301.270, 523.924 301.242, 526.841 298.787 C 529.728 296.358, 533.093 295.238, 544.122 293.036 C 558.389 290.188, 567.358 278.117, 565.688 264.013 C 564.530 254.238, 559.215 247.359, 550.212 243.983 C 545.647 242.271, 542.428 242, 526.654 242 C 512.887 242, 507.927 242.333, 506.535 243.351 M 669.190 242.861 C 668.119 243.541, 668.096 246.409, 669.064 258.596 C 670.490 276.562, 669.673 302.217, 667.309 313.670 C 665.124 324.259, 665.638 325, 675.168 325 C 681.153 325, 682.418 324.673, 684.505 322.586 C 687.752 319.339, 688.502 315.731, 687.362 308.838 C 686.652 304.550, 686.732 302.450, 687.672 300.656 C 689.033 298.058, 694.268 295.558, 700.575 294.494 C 710.790 292.770, 717.064 289.997, 721.579 285.210 C 726.659 279.825, 728.286 274.625, 727.855 265.151 C 727.377 254.625, 724.392 249.969, 715.093 245.250 L 708.690 242 689.595 242.015 C 679.093 242.024, 669.911 242.404, 669.190 242.861 M 420.098 244.265 C 416.111 246.315, 415.388 248.371, 416.952 253.207 C 417.928 256.227, 418.454 264.765, 418.724 282 C 419.047 302.544, 418.834 307.671, 417.404 313.755 C 415.775 320.687, 415.779 321.099, 417.504 323.005 C 420.044 325.811, 431.686 325.885, 435.105 323.116 C 437.410 321.250, 437.421 321.138, 436.319 310.866 C 434.860 297.270, 435.603 291.955, 439.206 290.229 C 442.769 288.523, 453.562 287.557, 459.360 288.427 C 467.142 289.594, 467.366 290.175, 466.561 307.096 C 465.868 321.651, 465.883 321.805, 468.153 323.395 C 470.682 325.166, 482.439 325.641, 484.917 324.072 C 486.539 323.046, 486.590 316.682, 485.011 312.529 C 483.251 307.900, 483.733 265.826, 485.661 255.764 C 487.262 247.406, 487.256 246.940, 485.512 245.014 C 482.875 242.099, 472.368 242.136, 468.635 245.073 L 466 247.146 466.602 259.823 C 467.348 275.515, 467.105 275.981, 457.796 276.728 C 448.423 277.481, 440.278 276.278, 437.772 273.772 C 435.844 271.844, 435.748 270.931, 436.310 259.764 C 436.897 248.096, 436.855 247.764, 434.501 245.410 C 432.618 243.527, 431.042 243.003, 427.295 243.015 C 424.658 243.023, 421.419 243.585, 420.098 244.265 M 237.750 254.009 C 236.150 255.006, 236.001 257.514, 236.015 283.300 C 236.024 298.810, 236.414 312.105, 236.883 312.845 C 238.078 314.731, 253.102 314.516, 256.886 312.559 C 260.803 310.534, 265.531 304.900, 267.144 300.336 C 268.030 297.829, 268.485 291.996, 268.455 283.500 C 268.417 272.225, 268.114 269.848, 266.171 265.588 C 262.370 257.249, 257.253 254.050, 246.633 253.374 C 242.403 253.104, 238.788 253.363, 237.750 254.009 M 524.101 254.812 C 522.505 257.794, 522.632 281.646, 524.250 282.683 C 526.324 284.011, 538.563 283.277, 541.742 281.633 C 546.718 279.060, 548.481 275.391, 548.431 267.710 C 548.389 261.265, 548.203 260.736, 544.766 257.299 C 541.329 253.862, 540.738 253.654, 533.173 253.216 C 525.898 252.795, 525.105 252.934, 524.101 254.812 M 604.379 254.437 C 595.646 258.238, 590.498 274.995, 592.998 291.485 C 594.267 299.856, 595.126 302.373, 598.714 308.229 C 604.511 317.691, 619.127 318.580, 626.417 309.916 C 631.670 303.674, 632.391 300.677, 632.414 285 C 632.434 271.472, 632.263 270.131, 629.853 265 C 625.693 256.142, 621.001 252.965, 612.185 253.039 C 609.608 253.061, 606.096 253.690, 604.379 254.437 M 687.141 254.330 C 685.655 256.121, 684.723 271.286, 685.718 277.500 L 686.519 282.500 693.766 282.794 C 705.897 283.286, 711 279.074, 711 268.567 C 711 257.917, 705.915 253.010, 694.872 253.004 C 690.575 253.001, 687.857 253.467, 687.141 254.330" stroke="none" fill="#84d15e" fill-rule="evenodd" data-index="0"></path></svg>